<svg xmlns="http://www.w3.org/2000/svg" xmlns:xlink="http://www.w3.org/1999/xlink" width="1920" zoomAndPan="magnify" viewBox="265 330.75 910 147.75" height="1080" preserveAspectRatio="xMidYMid meet" version="1.0"><defs><clipPath id="83fba8e591"><path d="M 265.199219 330.75 L 1174.199219 330.75 L 1174.199219 478.5 L 265.199219 478.5 Z M 265.199219 330.75 " clip-rule="nonzero"/></clipPath></defs><path stroke-linecap="butt" transform="matrix(0.750035, 0, 0, 0.749935, 96.531995, 11.556965)" fill="none" stroke-linejoin="miter" d="M 920.378016 577.46852 C 919.851999 576.968477 913.008568 576.478851 910.810754 575.765248 C 900.352907 572.353496 889.181553 565.055994 880.671532 558.768994 C 879.557001 557.951216 878.833076 557.029261 878.499758 556.013549 C 878.35914 555.591638 878.301851 555.164518 878.327891 554.721771 C 878.348724 554.279025 878.452886 553.857113 878.629961 553.456037 C 878.812244 553.049752 879.062232 552.695555 879.374718 552.383028 C 879.692411 552.07571 880.051769 551.830897 880.458001 551.653799 L 900.493526 543.028057 C 900.608104 542.981178 900.72789 542.949925 900.852884 542.92909 C 904.071484 542.507179 907.357789 542.783244 910.706592 543.74166 C 924.060136 547.601367 932.236839 549.893231 935.231491 550.627669 C 940.127097 551.825689 945.236234 552.325732 950.558902 552.127798 C 958.157507 551.841315 969.302821 548.429563 971.958947 540.444501 C 975.172339 530.70408 968.172665 521.703305 958.688732 519.97399 C 943.205078 517.145622 929.393221 521.802272 910.638887 526.745406 C 905.107894 528.203865 900.582063 528.532018 895.941654 525.417167 C 879.187226 514.228704 868.854374 507.379156 864.943098 504.873732 C 864.82852 504.80081 864.781647 504.696634 864.797272 504.561206 C 864.812896 504.425777 864.885809 504.337228 865.016011 504.290349 C 887.22331 496.721989 902.233028 491.690307 910.050372 489.205718 C 920.221774 485.971065 930.466088 482.856213 940.788524 479.866373 C 944.001916 478.93921 948.376712 478.220398 951.444278 478.506881 C 952.183827 478.574595 952.866087 478.80899 953.491057 479.204857 C 954.116028 479.605934 954.616005 480.126812 954.990988 480.767492 C 956.923189 484.090694 959.339743 486.950315 962.245858 489.351564 C 962.579176 489.617212 962.954158 489.804728 963.370806 489.908903 C 967.959134 491.007956 969.287197 485.122033 967.344579 482.392632 C 959.615772 471.568784 946.387222 469.193579 933.476365 473.25122 C 907.081761 481.527974 882.499572 489.71097 859.729799 497.805416 C 859.203782 497.987723 858.672557 498.102317 858.130915 498.149196 C 853.303015 498.492975 849.074046 494.607224 844.53259 492.976876 C 833.980998 489.169256 822.788811 486.596118 810.950821 485.26267 C 804.21676 484.502188 797.196253 485.205374 789.884094 487.377436 C 787.243592 488.158753 784.936408 489.747431 782.952125 492.148679 C 782.316738 492.909161 781.95738 494.008214 781.884466 495.43542 C 781.634478 499.779544 783.10316 503.321516 786.280095 506.061335 C 793.014156 511.869126 801.117946 514.322462 810.591463 513.416134 C 817.580721 512.759828 825.434522 511.718071 834.147657 510.290865 C 840.886927 509.191812 847.173092 507.478123 854.042564 508.405286 C 860.386019 509.249109 866.385739 515.504855 871.968813 519.687507 C 873.265627 520.661549 879.780949 525.464046 891.509569 534.100205 C 891.655396 534.20959 891.707477 534.350227 891.676228 534.522117 C 891.64498 534.699215 891.540818 534.8086 891.368951 534.860687 C 888.67116 535.647213 885.952536 536.782728 883.197456 538.256813 C 878.754955 540.642435 874.270789 542.19986 869.573091 544.226076 C 865.609734 545.934557 862.063024 546.054359 858.927753 544.585482 C 851.05312 540.908083 843.793041 538.251604 837.147518 536.616047 C 829.934312 534.845061 819.466049 533.917898 812.919479 538.371406 C 812.549705 538.631845 812.2893 538.965207 812.138266 539.387118 C 810.98207 542.58531 810.956029 545.163657 812.049728 547.111741 C 814.351704 551.242305 819.689997 555.586429 824.56477 556.357328 C 832.543565 557.612645 839.10576 559.409674 844.246145 561.753626 C 844.694041 561.956769 845.162769 562.071362 845.657538 562.113032 C 850.48023 562.472438 853.360304 562.519317 854.302969 562.253669 C 860.386019 560.519145 864.463954 559.789915 866.526358 560.055563 C 869.625172 560.461848 872.156304 561.399429 874.13017 562.852679 C 885.306733 571.13985 892.639725 576.296544 896.123938 578.32276 C 904.680831 583.32319 918.763508 588.995553 928.903661 588.037137 C 929.361973 587.990258 929.799453 587.875665 930.221308 587.693358 C 938.116773 584.224309 934.262786 575.624611 929.091152 571.968047 C 928.63284 571.645102 928.127655 571.462795 927.565182 571.426333 C 925.752766 571.290905 924.200755 571.296114 922.909148 571.436751 C 922.52375 571.48363 922.1696 571.603432 921.836282 571.801366 C 921.508172 571.99409 921.242559 572.249321 921.034236 572.556639 C 920.825912 572.869166 920.700918 573.202528 920.659253 573.556725 C 920.617588 573.916131 920.659253 574.265119 920.794664 574.593272 C 920.898825 574.853711 920.976947 575.71316 921.034236 577.182037 C 921.039444 577.353927 920.966531 577.478937 920.80508 577.546651 C 920.643629 577.614366 920.50301 577.588322 920.378016 577.46852 " stroke="#818383" stroke-width="2" stroke-opacity="1" stroke-miterlimit="4"/><path stroke-linecap="butt" transform="matrix(0.750035, 0, 0, 0.749935, 96.531995, 11.556965)" fill="none" stroke-linejoin="miter" d="M 661.869223 559.383631 C 659.306842 562.16512 657.556924 563.816304 656.614259 564.34239 C 646.557436 569.931413 635.719399 570.49917 624.105356 566.05608 C 622.13149 565.311224 621.115912 563.399601 619.574318 563.097492 C 618.860809 562.951646 618.246254 562.618284 617.730653 562.097406 C 612.944418 557.221986 609.866436 553.153928 608.507125 549.898439 C 603.142791 537.147342 603.023005 524.411872 608.147766 511.692027 C 608.949812 509.707482 610.350789 507.431244 612.361112 504.863315 C 618.892058 496.518847 627.917679 492.424745 639.42756 492.575799 C 639.641091 492.575799 639.849415 492.601843 640.057739 492.648722 L 645.484569 493.877995 C 645.651228 493.930083 645.760598 493.872786 645.817887 493.706105 C 645.869968 493.539424 645.817887 493.419622 645.656436 493.346699 C 642.724281 492.044504 639.745253 491.575713 636.714144 491.935119 C 631.901868 492.508085 629.131164 492.419536 625.115726 493.664435 C 612.491314 497.6179 604.335444 506.59263 600.892896 519.687507 C 599.252347 525.896374 599.085688 532.365681 600.392919 539.085009 C 602.543861 550.179714 608.257136 558.628357 617.532746 564.425731 C 618.173341 564.826807 619.105589 565.306015 620.334699 565.868563 C 628.1885 569.420952 636.464156 570.467917 645.156459 569.009459 C 651.775943 567.894779 657.3486 564.68617 661.869223 559.383631 " stroke="#818383" stroke-width="2" stroke-opacity="1" stroke-miterlimit="4"/><path stroke-linecap="butt" transform="matrix(0.750035, 0, 0, 0.749935, 96.531995, 11.556965)" fill="none" stroke-linejoin="miter" d="M 346.269338 552.497621 C 341.420605 562.623493 333.285568 568.087504 321.859017 568.894865 C 313.838557 569.467831 307.021166 567.795813 301.401636 563.884018 C 292.011448 557.341788 286.657531 548.195168 285.334676 536.444157 C 283.121237 516.801842 291.959367 496.20632 313.22921 493.164392 C 325.713004 491.382988 335.389636 495.617728 342.2539 505.863401 C 342.399727 506.071752 342.49868 506.306147 342.555969 506.561378 L 343.123651 509.061593 C 343.1549 509.197021 343.233021 509.295988 343.352807 509.358493 C 343.472593 509.420999 343.597587 509.426207 343.72779 509.37412 L 344.113188 509.20223 C 344.123605 509.197021 344.128813 509.186604 344.123605 509.176186 L 342.040368 501.389058 C 341.889334 500.800465 341.561224 500.326466 341.056039 499.961852 C 331.103378 492.91437 320.588242 490.56521 309.500217 492.903953 C 293.678037 496.232364 282.735839 508.249023 280.564065 524.057675 C 278.970389 535.688884 281.4234 545.944974 287.917889 554.825947 C 292.44372 561.00877 298.386151 565.28518 305.745184 567.665593 C 318.400844 571.770113 332.51477 569.608469 343.524674 561.540066 C 343.904865 561.274418 344.170477 560.915012 344.311096 560.467057 L 346.795355 552.643467 C 346.83702 552.518457 346.800563 552.41949 346.696401 552.341358 L 346.680777 552.341358 C 346.488078 552.263226 346.352667 552.315314 346.269338 552.497621 " stroke="#818383" stroke-width="2" stroke-opacity="1" stroke-miterlimit="4"/><path stroke-linecap="butt" transform="matrix(0.750035, 0, 0, 0.749935, 96.531995, 11.556965)" fill="none" stroke-linejoin="miter" d="M 1116.681374 531.59999 C 1116.785536 537.220265 1117.941732 542.611354 1120.149962 547.773257 C 1126.394463 562.352636 1138.779303 569.910578 1154.591066 569.608469 C 1170.40283 569.327194 1182.501225 561.31088 1188.198876 546.497105 C 1190.209199 541.272697 1191.16228 535.845147 1191.058118 530.214454 C 1190.964372 524.599388 1189.808176 519.208299 1187.599946 514.046397 C 1181.360653 499.461809 1168.960189 491.909075 1153.16405 492.205976 C 1137.352286 492.492459 1125.253891 500.503565 1119.551032 515.317339 C 1117.535501 520.546956 1116.577212 525.974506 1116.681374 531.59999 " stroke="#818383" stroke-width="2" stroke-opacity="1" stroke-miterlimit="4"/><path stroke-linecap="butt" transform="matrix(0.750035, 0, 0, 0.749935, 96.531995, 11.556965)" fill="none" stroke-linejoin="miter" d="M 376.590842 567.582253 C 376.439808 567.582253 376.309606 567.530165 376.200236 567.42078 C 376.090866 567.311396 376.038785 567.181176 376.038785 567.024913 C 375.986704 533.933524 376.002328 511.348248 376.08045 499.263875 C 376.096074 496.518847 377.700166 494.805158 380.877101 494.122808 C 381.132298 494.065511 381.2625 493.909247 381.2625 493.648808 L 381.2625 493.206062 C 381.2625 493.138348 381.231251 493.107095 381.163546 493.107095 L 365.935089 493.107095 C 365.898632 493.107095 365.8778 493.12793 365.8778 493.164392 L 365.8778 493.518589 C 365.8778 493.6436 365.919464 493.752984 366.002794 493.846742 C 366.086123 493.935291 366.190285 493.98217 366.310071 493.992588 C 369.393261 494.190522 370.940064 495.622937 370.95048 498.289833 C 371.065058 517.166457 371.070266 538.517252 370.966104 562.352636 C 370.955688 565.628959 369.398469 567.29577 366.294447 567.353066 C 366.179869 567.353066 366.080915 567.394736 366.002794 567.472868 C 365.919464 567.556209 365.8778 567.655175 365.8778 567.769769 L 365.8778 568.123966 C 365.8778 568.181262 365.90384 568.212515 365.950713 568.212515 L 421.703325 568.212515 C 422.151221 568.207306 422.500163 568.024999 422.760567 567.655175 C 424.140711 565.634168 425.026087 563.368348 425.416693 560.852507 C 425.432318 560.743122 425.406277 560.644156 425.338572 560.555606 C 425.270867 560.467057 425.182329 560.40976 425.072959 560.399343 L 425.057335 560.399343 C 424.890676 560.373299 424.786515 560.446222 424.74485 560.612903 C 424.057382 563.342304 422.505371 565.472696 420.088817 566.998869 C 419.734666 567.217638 419.349268 567.327022 418.93262 567.327022 L 376.590842 567.582253 " stroke="#818383" stroke-width="2" stroke-opacity="1" stroke-miterlimit="4"/><path stroke-linecap="butt" transform="matrix(0.750035, 0, 0, 0.749935, 96.531995, 11.556965)" fill="none" stroke-linejoin="miter" d="M 448.155218 530.829091 C 448.155218 550.341186 448.134385 560.868133 448.097929 562.409933 C 448.004183 565.503949 446.384467 567.222847 443.243988 567.566626 C 443.145034 567.577044 443.098162 567.629132 443.098162 567.72289 L 443.098162 568.097922 C 443.098162 568.196889 443.134618 568.285438 443.207532 568.358361 C 443.280445 568.431284 443.368982 568.467745 443.467936 568.467745 C 445.879282 568.498998 448.275004 568.509416 450.655101 568.509416 C 453.045615 568.509416 455.446545 568.498998 457.852683 568.467745 C 457.956845 568.467745 458.045382 568.431284 458.118295 568.358361 C 458.191209 568.285438 458.227665 568.196889 458.227665 568.097922 L 458.227665 567.72289 C 458.227665 567.629132 458.175584 567.577044 458.081839 567.566626 C 454.94136 567.222847 453.321644 565.503949 453.227898 562.409933 C 453.175817 560.868133 453.154985 550.341186 453.154985 530.829091 C 453.154985 511.306578 453.175817 500.77963 453.212274 499.248248 C 453.30602 496.143815 454.925736 494.419708 458.066215 494.075928 C 458.165168 494.07072 458.212041 494.018632 458.212041 493.919665 L 458.212041 493.549842 C 458.212041 493.445666 458.175584 493.357117 458.102671 493.284194 C 458.029758 493.21648 457.94122 493.180018 457.837059 493.180018 C 455.430921 493.148765 453.035199 493.138348 450.655101 493.148765 C 448.264588 493.138348 445.863658 493.148765 443.45752 493.180018 C 443.353358 493.180018 443.264821 493.21648 443.191907 493.284194 C 443.118994 493.357117 443.082537 493.445666 443.082537 493.549842 L 443.082537 493.919665 C 443.082537 494.018632 443.12941 494.07072 443.228364 494.075928 C 446.368843 494.419708 447.988559 496.143815 448.082305 499.248248 C 448.129177 500.77963 448.155218 511.306578 448.155218 530.829091 " stroke="#818383" stroke-width="2" stroke-opacity="1" stroke-miterlimit="4"/><path stroke-linecap="butt" transform="matrix(0.750035, 0, 0, 0.749935, 96.531995, 11.556965)" fill="none" stroke-linejoin="miter" d="M 538.900991 561.081693 L 538.927032 498.420052 C 538.927032 497.638735 539.140564 496.925132 539.567627 496.274034 C 539.999899 495.622937 540.56758 495.143729 541.286297 494.836411 L 543.442447 493.904039 C 543.645562 493.810281 543.723683 493.648808 543.676811 493.43004 C 543.629938 493.211271 543.494528 493.101886 543.27058 493.091469 L 533.187716 493.091469 C 533.083554 493.091469 533.031473 493.143557 533.031473 493.247732 L 533.031473 493.664435 C 533.031473 493.810281 533.078346 493.9405 533.1773 494.049885 C 533.276253 494.159269 533.396039 494.221774 533.541866 494.237401 C 536.322987 494.549928 537.718755 496.096936 537.729171 498.878425 C 537.8125 519.197881 537.750003 539.652766 537.531264 560.243079 " stroke="#858888" stroke-width="2" stroke-opacity="1" stroke-miterlimit="4"/><path stroke-linecap="butt" transform="matrix(0.750035, 0, 0, 0.749935, 96.531995, 11.556965)" fill="none" stroke-linejoin="miter" d="M 537.531264 560.243079 C 522.04761 539.652766 506.376465 518.614498 490.523036 497.117857 C 490.007435 496.425089 490.002227 495.742739 490.507412 495.076015 C 490.965724 494.477005 491.856307 494.055093 493.179163 493.805072 C 493.194787 493.805072 493.205203 493.794654 493.205203 493.763402 L 493.205203 493.393578 C 493.205203 493.200853 493.111457 493.107095 492.918758 493.107095 L 478.638173 493.107095 C 478.424641 493.117513 478.299647 493.232106 478.257982 493.440457 C 478.216318 493.648808 478.289231 493.799863 478.48193 493.893621 C 481.757819 495.31041 483.361911 497.180362 483.294206 499.503479 C 483.111923 505.743599 483.122339 526.511011 483.320247 561.810923 C 483.341079 565.764388 481.856773 567.681219 478.867329 567.566626 C 478.752751 567.556209 478.679838 567.613505 478.653797 567.738516 C 478.575676 568.082296 478.726711 568.306273 479.106901 568.410449 C 479.153774 568.420866 479.205855 568.426075 479.263144 568.426075 L 488.991858 568.426075 C 489.12206 568.426075 489.23143 568.379196 489.325175 568.285438 C 489.418921 568.196889 489.465794 568.082296 489.465794 567.952076 L 489.465794 567.582253 C 489.465794 567.524956 489.429337 567.488494 489.361632 567.483286 L 487.163818 567.212429 C 486.632592 567.144715 486.236778 566.873858 485.976373 566.39465 C 484.596229 563.863183 483.908761 561.706747 483.908761 559.925344 C 483.841056 541.975883 483.815015 521.099087 483.820223 497.289747 C 483.815015 496.88867 484.002507 496.617814 484.387905 496.492803 C 484.773304 496.362584 485.085789 496.46155 485.320154 496.789704 L 538.197899 567.884362 C 538.302061 568.01979 538.437471 568.06146 538.598922 568.009373 C 538.760373 567.952076 538.843702 567.837483 538.843702 567.665593 L 538.900991 561.081693 " stroke="#818383" stroke-width="2" stroke-opacity="1" stroke-miterlimit="4"/><path stroke-linecap="butt" transform="matrix(0.750035, 0, 0, 0.749935, 96.531995, 11.556965)" fill="none" stroke-linejoin="miter" d="M 537.531264 560.243079 C 537.489599 560.519145 537.562512 560.79521 537.744795 561.071276 C 537.916662 561.347341 538.302061 561.347341 538.900991 561.081693 " stroke="#151616" stroke-width="2" stroke-opacity="1" stroke-miterlimit="4"/><path stroke-linecap="butt" transform="matrix(0.750035, 0, 0, 0.749935, 96.531995, 11.556965)" fill="none" stroke-linejoin="miter" d="M 571.368229 493.148765 C 568.415242 493.148765 565.977855 493.096678 564.05607 492.992502 C 563.847746 492.95604 563.722752 493.039381 563.686295 493.247732 C 563.649839 493.456083 563.733168 493.581094 563.941492 493.622764 C 567.27467 494.58118 568.925635 496.711572 568.894386 500.003522 C 568.868346 503.222549 568.878762 523.812862 568.925635 561.769252 C 568.925635 565.170587 567.425705 567.103045 564.425844 567.566626 C 564.321683 567.571835 564.238353 567.613505 564.170648 567.691637 C 564.102943 567.769769 564.071694 567.858318 564.076902 567.962494 C 564.08211 568.06146 564.123775 568.15001 564.201896 568.217724 C 564.27481 568.285438 564.363347 568.316691 564.467509 568.311482 C 567.326751 568.436493 569.623519 568.498998 571.368229 568.498998 C 573.118148 568.498998 575.420124 568.436493 578.26895 568.311482 C 578.367903 568.316691 578.456441 568.285438 578.534562 568.217724 C 578.612684 568.15001 578.654348 568.06146 578.659556 567.962494 C 578.664764 567.858318 578.633516 567.769769 578.565811 567.691637 C 578.498106 567.613505 578.409568 567.571835 578.310614 567.566626 C 575.310754 567.103045 573.810824 565.170587 573.810824 561.769252 C 573.857697 523.812862 573.868113 503.222549 573.836864 500.003522 C 573.810824 496.711572 575.461789 494.58118 578.794967 493.622764 C 579.00329 493.586303 579.091828 493.466501 579.055371 493.25815 C 579.024123 493.049799 578.904337 492.961249 578.696013 492.992502 C 576.763811 493.096678 574.321217 493.148765 571.368229 493.148765 " stroke="#818383" stroke-width="2" stroke-opacity="1" stroke-miterlimit="4"/><path stroke-linecap="butt" transform="matrix(0.750035, 0, 0, 0.749935, 96.531995, 11.556965)" fill="none" stroke-linejoin="miter" d="M 1295.5845 540.142392 C 1315.135673 540.44971 1326.973663 540.423666 1331.098471 540.069469 C 1352.13395 538.272439 1358.263872 511.389918 1343.436438 498.446096 C 1341.264664 496.555308 1338.436671 495.174981 1334.952458 494.305115 C 1331.608864 493.466501 1328.468385 493.034172 1325.525814 493.008128 C 1312.297263 492.862282 1301.016539 492.903953 1291.688848 493.122721 C 1291.470108 493.122721 1291.282617 493.206062 1291.131582 493.362325 C 1290.97534 493.51338 1290.902426 493.700896 1290.902426 493.919665 L 1290.902426 567.754142 C 1290.902426 567.957285 1290.970131 568.129175 1291.115958 568.269812 C 1291.256576 568.410449 1291.428443 568.483372 1291.631559 568.483372 L 1294.131443 568.483372 C 1294.318934 568.483372 1294.480385 568.415658 1294.615795 568.280229 C 1294.745997 568.15001 1294.813702 567.988538 1294.813702 567.795813 L 1294.813702 540.897665 C 1294.813702 540.689314 1294.891824 540.507006 1295.042858 540.361161 C 1295.193893 540.210106 1295.376176 540.137183 1295.5845 540.142392 " stroke="#818383" stroke-width="2" stroke-opacity="1" stroke-miterlimit="4"/><path stroke-linecap="butt" transform="matrix(0.750035, 0, 0, 0.749935, 96.531995, 11.556965)" fill="none" stroke-linejoin="miter" d="M 1094.312624 493.180018 L 1091.172145 493.180018 C 1091.140897 493.174809 1091.120064 493.190436 1091.099232 493.221688 L 1059.689236 566.295684 C 1059.605907 566.504035 1059.449664 566.613419 1059.220508 566.613419 C 1058.991352 566.613419 1058.829901 566.504035 1058.730948 566.295684 L 1027.477195 493.904039 C 1027.383449 493.680061 1027.232415 493.497754 1027.034507 493.367534 C 1026.831392 493.232106 1026.607444 493.164392 1026.362664 493.164392 L 1024.149225 493.164392 C 1024.071104 493.164392 1023.992982 493.185227 1023.925277 493.221688 C 1023.852364 493.263359 1023.795075 493.315446 1023.75341 493.383161 C 1023.706537 493.450875 1023.680497 493.529006 1023.675289 493.612347 C 1023.664873 493.690479 1023.675289 493.773819 1023.706537 493.846742 L 1055.402978 567.280143 C 1055.600885 567.733307 1055.902954 568.097922 1056.309185 568.373987 C 1056.715417 568.650053 1057.163312 568.795899 1057.658081 568.811525 C 1058.15285 568.827151 1058.605954 568.712558 1059.033017 568.462537 C 1059.454872 568.207306 1059.777774 567.863527 1060.001722 567.425989 L 1065.975402 555.628099 C 1066.037899 555.482253 1066.08998 555.336407 1066.11602 555.185353 L 1066.386841 553.3154 C 1066.438922 552.966412 1066.621205 552.742434 1066.944107 552.627841 C 1067.610742 552.377819 1067.860731 551.976743 1067.688864 551.414195 C 1067.631575 551.195426 1067.647199 550.976657 1067.746153 550.768306 L 1077.860265 530.000894 C 1077.917554 529.886301 1077.92797 529.766499 1077.90193 529.646697 C 1077.740479 529.016435 1077.92797 528.594523 1078.47482 528.375754 C 1078.860219 528.214282 1079.07375 527.917382 1079.115415 527.490262 C 1079.193536 526.573516 1079.308114 525.948462 1079.469565 525.6151 C 1082.110067 520.463615 1084.677656 515.348592 1087.172331 510.275239 C 1087.474401 509.665811 1087.661892 509.07201 1087.729597 508.488627 C 1087.80251 507.650013 1088.083747 507.103091 1088.573308 506.847861 C 1089.036828 506.59263 1089.255568 506.201972 1089.229527 505.675885 C 1089.198279 505.076875 1089.318065 504.519535 1089.583677 504.003866 C 1091.469006 500.368136 1093.166844 496.945967 1094.671982 493.737358 C 1094.734479 493.607138 1094.724063 493.487336 1094.645942 493.362325 C 1094.573028 493.242523 1094.45845 493.180018 1094.312624 493.180018 " stroke="#818383" stroke-width="2" stroke-opacity="1" stroke-miterlimit="4"/><path stroke-linecap="butt" transform="matrix(0.750035, 0, 0, 0.749935, 96.531995, 11.556965)" fill="none" stroke-linejoin="miter" d="M 1219.853652 568.082296 C 1219.853652 568.222933 1219.926565 568.295856 1220.067184 568.295856 L 1266.190036 568.295856 C 1266.330654 568.295856 1266.403567 568.222933 1266.403567 568.082296 L 1266.403567 567.498912 C 1266.403567 567.353066 1266.330654 567.280143 1266.190036 567.280143 L 1223.952419 567.280143 C 1223.811801 567.280143 1223.738888 567.212429 1223.738888 567.066583 L 1223.738888 493.450875 C 1223.738888 493.305029 1223.665974 493.237315 1223.525356 493.237315 L 1220.067184 493.237315 C 1219.926565 493.237315 1219.853652 493.305029 1219.853652 493.450875 L 1219.853652 568.082296 " stroke="#818383" stroke-width="2" stroke-opacity="1" stroke-miterlimit="4"/><path stroke-linecap="butt" transform="matrix(0.750035, 0, 0, 0.749935, 96.531995, 11.556965)" fill="none" stroke-linejoin="miter" d="M 1382.65857 493.737358 C 1382.65857 493.523798 1382.585656 493.34149 1382.434622 493.190436 C 1382.283587 493.039381 1382.101304 492.961249 1381.887772 492.961249 L 1379.887865 492.961249 C 1379.674334 492.961249 1379.497258 493.039381 1379.346224 493.190436 C 1379.195189 493.34149 1379.117068 493.523798 1379.117068 493.737358 L 1379.117068 567.665593 C 1379.117068 567.879153 1379.195189 568.06146 1379.346224 568.212515 C 1379.497258 568.36357 1379.674334 568.441701 1379.887865 568.441701 L 1381.887772 568.441701 C 1382.101304 568.441701 1382.283587 568.36357 1382.434622 568.212515 C 1382.585656 568.06146 1382.65857 567.879153 1382.65857 567.665593 L 1382.65857 493.737358 " stroke="#818383" stroke-width="2" stroke-opacity="1" stroke-miterlimit="4"/><path stroke-linecap="butt" transform="matrix(0.750035, 0, 0, 0.749935, 96.531995, 11.556965)" fill="none" stroke-linejoin="miter" d="M 663.369153 508.660517 L 661.71298 502.290177 C 661.504656 501.498442 661.098425 500.826509 660.499495 500.274378 C 656.947577 497.01889 652.645694 494.747861 647.599054 493.461292 C 647.484476 493.43004 647.375106 493.445666 647.270944 493.508171 C 647.166782 493.570677 647.099077 493.659226 647.073037 493.779028 L 647.057413 493.820698 C 647.026164 493.930083 647.03658 494.039467 647.088661 494.138434 C 647.140742 494.237401 647.218863 494.305115 647.328233 494.336368 C 654.833092 496.649067 659.989102 501.461981 662.796263 508.77511 C 662.879592 508.967835 663.009795 509.03034 663.197286 508.962626 L 663.21291 508.962626 C 663.353529 508.915747 663.405609 508.81678 663.369153 508.660517 " stroke="#818383" stroke-width="2" stroke-opacity="1" stroke-miterlimit="4"/><path stroke-linecap="butt" transform="matrix(0.750035, 0, 0, 0.749935, 96.531995, 11.556965)" fill="none" stroke-linejoin="miter" d="M 711.221091 545.700162 L 701.606955 546.486688 " stroke="#d0d4d3" stroke-width="2" stroke-opacity="1" stroke-miterlimit="4"/><path stroke-linecap="butt" transform="matrix(0.750035, 0, 0, 0.749935, 96.531995, 11.556965)" fill="none" stroke-linejoin="miter" d="M 701.606955 546.486688 L 671.681266 546.554402 C 671.58752 546.559611 671.504191 546.538775 671.420861 546.491896 C 671.337532 546.450226 671.269827 546.387721 671.217746 546.309589 C 671.170873 546.231457 671.139624 546.142908 671.134416 546.054359 C 671.129208 545.960601 671.144832 545.872051 671.181289 545.783502 L 690.794959 500.164994 C 690.831415 500.086862 690.826207 500.008731 690.779335 499.935808 C 690.732462 499.862885 690.664757 499.831632 690.581427 499.831632 L 690.138739 499.831632 C 689.966872 499.836841 689.847086 499.909764 689.779381 500.060818 L 665.681545 554.883243 C 665.660713 554.950957 665.676337 554.997837 665.738834 555.029089 L 666.238811 555.242649 C 666.332556 555.279111 666.421094 555.28432 666.51484 555.247858 C 666.608585 555.211397 666.671082 555.148891 666.712747 555.055133 L 669.582405 548.372266 C 669.702191 548.10141 669.879266 547.88785 670.124047 547.726378 C 670.368827 547.564905 670.634439 547.486774 670.926093 547.486774 L 701.252805 547.611784 " stroke="#aaaead" stroke-width="2" stroke-opacity="1" stroke-miterlimit="4"/><path stroke-linecap="butt" transform="matrix(0.750035, 0, 0, 0.749935, 96.531995, 11.556965)" fill="none" stroke-linejoin="miter" d="M 701.252805 547.611784 C 704.971382 548.320179 708.538924 548.39831 711.950224 547.856597 " stroke="#d0d4d3" stroke-width="2" stroke-opacity="1" stroke-miterlimit="4"/><path stroke-linecap="butt" transform="matrix(0.750035, 0, 0, 0.749935, 96.531995, 11.556965)" fill="none" stroke-linejoin="miter" d="M 711.950224 547.856597 C 715.606303 555.341616 717.845782 560.493101 718.663453 563.311052 C 719.366545 565.727926 718.606164 567.092627 716.377101 567.394736 C 716.246898 567.425989 716.147945 567.493703 716.069823 567.597879 C 715.991702 567.702055 715.955245 567.816648 715.965662 567.946867 C 715.97087 568.077087 716.022951 568.19168 716.116696 568.285438 C 716.205234 568.379196 716.319812 568.431284 716.450014 568.441701 L 730.3452 568.441701 C 730.449362 568.441701 730.527483 568.384405 730.574356 568.280229 L 730.720183 567.941658 C 730.756639 567.837483 730.751431 567.743725 730.694142 567.655175 C 730.642061 567.561417 730.56394 567.514538 730.459778 567.50933 C 727.069311 567.243682 724.710046 565.571663 723.376775 562.498482 C 716.043783 545.585568 706.25778 522.719018 694.023975 493.893621 C 693.878149 493.565468 693.622952 493.398787 693.263594 493.398787 C 692.909444 493.398787 692.654247 493.565468 692.508421 493.893621 L 691.097028 497.19078 C 690.826207 497.800207 690.826207 498.414843 691.097028 499.034688 L 711.221091 545.700162 " stroke="#818383" stroke-width="2" stroke-opacity="1" stroke-miterlimit="4"/><path stroke-linecap="butt" transform="matrix(0.750035, 0, 0, 0.749935, 96.531995, 11.556965)" fill="none" stroke-linejoin="miter" d="M 711.950224 547.856597 C 712.007513 546.856511 711.762732 546.137699 711.221091 545.700162 " stroke="#606262" stroke-width="2" stroke-opacity="1" stroke-miterlimit="4"/><path stroke-linecap="butt" transform="matrix(0.750035, 0, 0, 0.749935, 96.531995, 11.556965)" fill="none" stroke-linejoin="miter" d="M 701.606955 546.486688 C 701.950689 546.991939 701.830903 547.366972 701.252805 547.611784 " stroke="#8a8d8c" stroke-width="2" stroke-opacity="1" stroke-miterlimit="4"/><path stroke-linecap="butt" transform="matrix(0.750035, 0, 0, 0.749935, 96.531995, 11.556965)" fill="none" stroke-linejoin="miter" d="M 843.829498 502.732923 C 844.126359 502.675627 844.386764 502.540198 844.600296 502.331847 C 844.819035 502.123496 844.959654 501.868266 845.022151 501.571365 C 845.089856 501.279673 845.069024 500.987981 844.959654 500.706707 C 844.850284 500.425433 844.678417 500.196247 844.433637 500.019148 C 842.964955 498.972183 841.209828 498.00335 839.163049 497.117857 C 838.647448 496.899088 833.548727 495.477091 823.861678 492.851865 C 815.190207 490.507913 799.680513 489.419278 790.696556 493.961335 C 788.342499 495.154146 787.509205 497.383505 788.196672 500.649411 C 788.300834 501.133827 788.524782 501.55053 788.868516 501.889101 C 796.264005 509.217856 813.148635 508.863659 822.632569 506.946827 C 833.147704 504.832062 840.215083 503.4309 843.829498 502.732923 " stroke="#818383" stroke-width="2" stroke-opacity="1" stroke-miterlimit="4"/><path stroke-linecap="butt" transform="matrix(0.750035, 0, 0, 0.749935, 96.531995, 11.556965)" fill="none" stroke-linejoin="miter" d="M 914.99285 533.844975 C 914.180388 536.642091 916.320914 538.173472 919.023913 538.902702 C 931.450417 542.231113 940.517703 545.158448 951.288035 544.898009 C 957.100264 544.757372 964.829071 543.272869 967.28729 537.944286 C 968.667434 534.954445 968.401821 532.365681 966.485244 530.172784 C 957.647114 520.062539 928.492222 529.802961 917.263578 533.157416 C 917.091711 533.214712 916.935468 533.22513 916.79485 533.188669 C 916.774017 533.178251 916.602151 533.141789 916.279249 533.074075 C 915.992804 533.016779 915.727191 533.063658 915.482411 533.209504 C 915.237631 533.35535 915.070972 533.56891 914.99285 533.844975 " stroke="#818383" stroke-width="2" stroke-opacity="1" stroke-miterlimit="4"/><path stroke-linecap="butt" transform="matrix(0.750035, 0, 0, 0.749935, 96.531995, 11.556965)" fill="none" stroke-linejoin="miter" d="M 852.146819 550.028659 C 852.271813 549.841143 852.349935 549.638 852.386391 549.419232 C 852.422848 549.195254 852.407224 548.971276 852.349935 548.747299 C 852.287438 548.523321 852.188484 548.320179 852.042657 548.132663 C 851.896831 547.945146 851.724964 547.788883 851.51664 547.669081 C 848.490739 545.91893 844.990902 544.611526 841.017129 543.757286 C 835.876744 542.642607 830.741566 541.606059 825.622013 540.642435 C 823.012759 540.147601 820.30976 540.803907 817.523432 542.616563 C 817.111992 542.882211 816.809923 543.236408 816.622432 543.684363 C 815.268328 546.882555 816.19016 548.986903 819.377512 549.986989 C 829.272884 553.070587 839.397413 553.497707 849.761514 551.268349 C 850.980207 551.002701 851.771837 550.591207 852.146819 550.028659 " stroke="#818383" stroke-width="2" stroke-opacity="1" stroke-miterlimit="4"/><path stroke-linecap="butt" transform="matrix(0.750035, 0, 0, 0.749935, 96.531995, 11.556965)" fill="none" stroke-linejoin="miter" d="M 1120.467656 530.646783 C 1120.394742 539.543382 1122.722759 548.169124 1127.295463 554.924914 C 1133.524339 564.139248 1142.518712 568.624009 1153.533824 568.722976 C 1164.559352 568.827151 1173.631846 564.498654 1180.03259 555.398913 C 1184.714664 548.726464 1187.198923 540.142392 1187.28746 531.245793 C 1187.37079 522.333568 1185.027149 513.702617 1180.475278 506.962454 C 1174.230777 497.732493 1165.231196 493.247732 1154.221292 493.148765 C 1143.20618 493.049799 1134.12327 497.378296 1127.722526 506.488455 C 1123.035244 513.145277 1120.550985 521.729349 1120.467656 530.646783 " stroke="#818483" stroke-width="2" stroke-opacity="1" stroke-miterlimit="4"/><path stroke-linecap="butt" transform="matrix(0.750035, 0, 0, 0.749935, 96.531995, 11.556965)" fill="none" stroke-linejoin="miter" d="M 1294.943905 494.961421 L 1294.714749 538.215143 C 1294.709541 538.491208 1294.808494 538.730812 1295.001194 538.928746 C 1295.199101 539.131888 1295.433465 539.230855 1295.714702 539.230855 L 1327.213235 539.387118 C 1328.541298 539.392327 1329.853737 539.262108 1331.160968 539.001669 C 1332.462991 538.74123 1333.728557 538.345362 1334.957666 537.824484 C 1336.191984 537.303606 1337.358596 536.662926 1338.467919 535.902444 C 1339.577243 535.141962 1340.603237 534.277304 1341.545901 533.30847 C 1342.488565 532.334428 1343.332276 531.282255 1344.077033 530.136323 C 1344.82179 528.995599 1345.451969 527.787162 1345.96757 526.516219 C 1346.483171 525.245277 1346.873778 523.932664 1347.13939 522.583589 C 1347.405003 521.234515 1347.545622 519.869814 1347.55083 518.489487 L 1347.582078 515.260043 C 1347.587286 513.879716 1347.4675 512.509806 1347.212304 511.155523 C 1346.962315 509.80124 1346.582125 508.483418 1346.082148 507.207267 C 1345.582171 505.931115 1344.962409 504.71226 1344.228068 503.56112 C 1343.498935 502.409979 1342.66564 501.342179 1341.728184 500.362928 C 1340.790728 499.383677 1339.77515 498.503393 1338.671035 497.732493 C 1337.572128 496.961593 1336.405515 496.305287 1335.181614 495.773991 C 1333.957713 495.237487 1332.692147 494.831202 1331.390124 494.555136 C 1330.088101 494.28428 1328.770454 494.143643 1327.437183 494.133225 L 1295.943858 493.976962 C 1295.667829 493.976962 1295.438673 494.075928 1295.240766 494.263445 C 1295.048067 494.45617 1294.949113 494.690565 1294.943905 494.961421 " stroke="#818483" stroke-width="2" stroke-opacity="1" stroke-miterlimit="4"/><g clip-path="url(#83fba8e591)"><path fill="#f0f5f4" d="M 1354.28125 11.558594 L 1354.28125 821.101562 C 1352.960938 825.449219 1350.191406 828.402344 1345.980469 829.949219 L 96.53125 829.949219 L 96.53125 11.558594 Z M 786.847656 444.621094 C 786.453125 444.246094 781.320312 443.878906 779.671875 443.34375 C 771.828125 440.785156 763.449219 435.3125 757.066406 430.597656 C 756.230469 429.984375 755.6875 429.292969 755.4375 428.53125 C 755.332031 428.214844 755.289062 427.894531 755.308594 427.5625 C 755.324219 427.230469 755.402344 426.914062 755.535156 426.613281 C 755.671875 426.308594 755.859375 426.042969 756.09375 425.808594 C 756.332031 425.578125 756.601562 425.394531 756.902344 425.261719 L 771.933594 418.792969 C 772.019531 418.757812 772.109375 418.734375 772.203125 418.71875 C 774.617188 418.402344 777.082031 418.609375 779.59375 419.328125 C 789.609375 422.222656 795.738281 423.941406 797.988281 424.492188 C 801.660156 425.390625 805.492188 425.765625 809.484375 425.617188 C 815.183594 425.402344 823.542969 422.84375 825.535156 416.855469 C 827.945312 409.550781 822.695312 402.800781 815.582031 401.503906 C 803.96875 399.382812 793.609375 402.875 779.542969 406.582031 C 775.394531 407.675781 772 407.921875 768.515625 405.585938 C 755.953125 397.195312 748.203125 392.058594 745.269531 390.179688 C 745.183594 390.125 745.148438 390.046875 745.160156 389.945312 C 745.171875 389.84375 745.226562 389.777344 745.324219 389.742188 C 761.980469 384.066406 773.238281 380.292969 779.101562 378.429688 C 786.730469 376.003906 794.414062 373.667969 802.15625 371.425781 C 804.566406 370.730469 807.847656 370.191406 810.148438 370.40625 C 810.703125 370.457031 811.214844 370.632812 811.683594 370.929688 C 812.152344 371.230469 812.527344 371.621094 812.808594 372.101562 C 814.257812 374.59375 816.070312 376.738281 818.25 378.539062 C 818.5 378.738281 818.78125 378.878906 819.09375 378.957031 C 822.535156 379.78125 823.53125 375.367188 822.074219 373.320312 C 816.277344 365.203125 806.355469 363.421875 796.671875 366.464844 C 776.875 372.671875 758.4375 378.808594 741.359375 384.878906 C 740.964844 385.015625 740.566406 385.101562 740.160156 385.136719 C 736.539062 385.394531 733.367188 382.480469 729.960938 381.257812 C 722.046875 378.402344 713.652344 376.472656 704.773438 375.472656 C 699.722656 374.902344 694.457031 375.429688 688.972656 377.058594 C 686.992188 377.644531 685.261719 378.835938 683.773438 380.636719 C 683.296875 381.207031 683.027344 382.03125 682.972656 383.101562 C 682.785156 386.359375 683.886719 389.015625 686.269531 391.070312 C 691.320312 395.425781 697.398438 397.265625 704.503906 396.585938 C 709.746094 396.09375 715.636719 395.3125 722.171875 394.242188 C 727.226562 393.417969 731.941406 392.132812 737.09375 392.828125 C 741.851562 393.460938 746.351562 398.152344 750.539062 401.289062 C 751.511719 402.019531 756.398438 405.621094 765.195312 412.097656 C 765.304688 412.179688 765.34375 412.285156 765.320312 412.414062 C 765.296875 412.546875 765.21875 412.628906 765.089844 412.667969 C 763.066406 413.257812 761.023438 414.109375 758.960938 415.214844 C 755.628906 417.003906 752.265625 418.171875 748.742188 419.691406 C 745.769531 420.972656 743.109375 421.0625 740.757812 419.960938 C 734.851562 417.203125 729.40625 415.210938 724.421875 413.984375 C 719.011719 412.65625 711.15625 411.960938 706.25 415.300781 C 705.972656 415.496094 705.777344 415.746094 705.664062 416.0625 C 704.796875 418.460938 704.777344 420.394531 705.597656 421.855469 C 707.324219 424.953125 711.328125 428.210938 714.984375 428.789062 C 720.96875 429.730469 725.890625 431.078125 729.746094 432.835938 C 730.082031 432.988281 730.433594 433.074219 730.804688 433.105469 C 734.421875 433.375 736.582031 433.410156 737.289062 433.210938 C 741.851562 431.910156 744.910156 431.363281 746.457031 431.5625 C 748.78125 431.867188 750.679688 432.570312 752.15625 433.660156 C 760.542969 439.875 766.042969 443.742188 768.65625 445.261719 C 775.074219 449.011719 785.636719 453.265625 793.242188 452.546875 C 793.585938 452.511719 793.914062 452.425781 794.230469 452.289062 C 800.152344 449.6875 797.261719 443.238281 793.382812 440.496094 C 793.039062 440.253906 792.660156 440.117188 792.238281 440.089844 C 790.878906 439.988281 789.714844 439.992188 788.746094 440.097656 C 788.457031 440.132812 788.1875 440.222656 787.941406 440.371094 C 787.695312 440.515625 787.496094 440.707031 787.339844 440.9375 C 787.183594 441.171875 787.089844 441.421875 787.058594 441.6875 C 787.027344 441.957031 787.058594 442.21875 787.160156 442.464844 C 787.238281 442.660156 787.296875 443.304688 787.339844 444.40625 C 787.34375 444.535156 787.285156 444.628906 787.167969 444.679688 C 787.046875 444.730469 786.941406 444.710938 786.847656 444.621094 Z M 592.957031 431.058594 C 591.035156 433.144531 589.722656 434.382812 589.015625 434.777344 C 581.472656 438.96875 573.34375 439.394531 564.632812 436.0625 C 563.152344 435.503906 562.390625 434.070312 561.234375 433.84375 C 560.699219 433.734375 560.238281 433.484375 559.851562 433.09375 C 556.261719 429.4375 553.953125 426.386719 552.933594 423.945312 C 548.910156 414.382812 548.820312 404.832031 552.664062 395.292969 C 553.265625 393.804688 554.316406 392.097656 555.824219 390.171875 C 560.722656 383.914062 567.492188 380.84375 576.125 380.957031 C 576.285156 380.957031 576.441406 380.976562 576.597656 381.011719 L 580.667969 381.933594 C 580.792969 381.972656 580.875 381.929688 580.917969 381.804688 C 580.957031 381.679688 580.917969 381.589844 580.796875 381.535156 C 578.597656 380.558594 576.363281 380.207031 574.089844 380.476562 C 570.480469 380.90625 568.402344 380.839844 565.390625 381.773438 C 555.921875 384.738281 549.804688 391.46875 547.222656 401.289062 C 545.992188 405.945312 545.867188 410.796875 546.847656 415.835938 C 548.460938 424.15625 552.746094 430.492188 559.703125 434.839844 C 560.183594 435.140625 560.882812 435.5 561.804688 435.921875 C 567.695312 438.585938 573.902344 439.371094 580.421875 438.277344 C 585.386719 437.441406 589.566406 435.035156 592.957031 431.058594 Z M 356.246094 425.894531 C 352.609375 433.488281 346.507812 437.585938 337.9375 438.191406 C 331.921875 438.621094 326.808594 437.367188 322.59375 434.433594 C 315.550781 429.527344 311.535156 422.667969 310.542969 413.855469 C 308.882812 399.125 315.511719 383.679688 331.464844 381.398438 C 340.828125 380.0625 348.085938 383.238281 353.234375 390.921875 C 353.34375 391.078125 353.417969 391.253906 353.460938 391.445312 L 353.886719 393.320312 C 353.910156 393.421875 353.96875 393.496094 354.058594 393.542969 C 354.148438 393.589844 354.242188 393.59375 354.339844 393.554688 L 354.628906 393.425781 C 354.636719 393.421875 354.640625 393.414062 354.636719 393.40625 L 353.074219 387.566406 C 352.960938 387.125 352.714844 386.769531 352.335938 386.496094 C 344.871094 381.210938 336.984375 379.449219 328.667969 381.203125 C 316.800781 383.699219 308.59375 392.710938 306.964844 404.566406 C 305.769531 413.289062 307.609375 420.976562 312.480469 427.640625 C 315.875 432.277344 320.332031 435.484375 325.851562 437.269531 C 335.34375 440.347656 345.929688 438.726562 354.1875 432.675781 C 354.472656 432.476562 354.671875 432.207031 354.777344 431.871094 L 356.640625 426.003906 C 356.671875 425.910156 356.644531 425.835938 356.566406 425.777344 L 356.554688 425.777344 C 356.410156 425.71875 356.308594 425.757812 356.246094 425.894531 Z M 934.082031 410.222656 C 934.160156 414.4375 935.027344 418.480469 936.683594 422.347656 C 941.367188 433.285156 950.65625 438.953125 962.515625 438.726562 C 974.375 438.515625 983.449219 432.503906 987.722656 421.394531 C 989.230469 417.476562 989.945312 413.40625 989.867188 409.183594 C 989.796875 404.972656 988.929688 400.929688 987.273438 397.058594 C 982.59375 386.121094 973.292969 380.457031 961.445312 380.679688 C 949.585938 380.894531 940.511719 386.902344 936.234375 398.011719 C 934.722656 401.933594 934.003906 406.003906 934.082031 410.222656 Z M 378.988281 437.207031 C 378.875 437.207031 378.777344 437.167969 378.695312 437.085938 C 378.613281 437.003906 378.570312 436.90625 378.570312 436.789062 C 378.535156 411.972656 378.546875 395.035156 378.605469 385.972656 C 378.617188 383.914062 379.820312 382.628906 382.203125 382.117188 C 382.394531 382.074219 382.492188 381.957031 382.492188 381.761719 L 382.492188 381.429688 C 382.492188 381.378906 382.46875 381.355469 382.417969 381.355469 L 370.996094 381.355469 C 370.96875 381.355469 370.953125 381.371094 370.953125 381.398438 L 370.953125 381.664062 C 370.953125 381.757812 370.984375 381.839844 371.046875 381.910156 C 371.109375 381.976562 371.1875 382.011719 371.277344 382.019531 C 373.589844 382.167969 374.75 383.242188 374.757812 385.242188 C 374.84375 399.398438 374.847656 415.410156 374.769531 433.285156 C 374.761719 435.742188 373.59375 436.992188 371.265625 437.035156 C 371.179688 437.035156 371.105469 437.066406 371.046875 437.125 C 370.984375 437.1875 370.953125 437.261719 370.953125 437.347656 L 370.953125 437.613281 C 370.953125 437.65625 370.972656 437.679688 371.007812 437.679688 L 412.824219 437.679688 C 413.160156 437.675781 413.421875 437.539062 413.617188 437.261719 C 414.652344 435.746094 415.316406 434.046875 415.609375 432.160156 C 415.621094 432.078125 415.601562 432.003906 415.550781 431.9375 C 415.5 431.871094 415.433594 431.828125 415.351562 431.820312 L 415.339844 431.820312 C 415.214844 431.800781 415.136719 431.855469 415.105469 431.980469 C 414.589844 434.027344 413.425781 435.625 411.613281 436.769531 C 411.347656 436.933594 411.058594 437.015625 410.746094 437.015625 Z M 432.664062 409.644531 C 432.664062 424.277344 432.648438 432.171875 432.621094 433.328125 C 432.550781 435.648438 431.335938 436.9375 428.980469 437.195312 C 428.90625 437.203125 428.871094 437.242188 428.871094 437.3125 L 428.871094 437.59375 C 428.871094 437.667969 428.898438 437.734375 428.953125 437.789062 C 429.007812 437.84375 429.074219 437.871094 429.148438 437.871094 C 430.957031 437.894531 432.753906 437.902344 434.539062 437.902344 C 436.332031 437.902344 438.132812 437.894531 439.9375 437.871094 C 440.015625 437.871094 440.082031 437.84375 440.136719 437.789062 C 440.191406 437.734375 440.21875 437.667969 440.21875 437.59375 L 440.21875 437.3125 C 440.21875 437.242188 440.179688 437.203125 440.109375 437.195312 C 437.753906 436.9375 436.539062 435.648438 436.46875 433.328125 C 436.429688 432.171875 436.414062 424.277344 436.414062 409.644531 C 436.414062 395.003906 436.429688 387.109375 436.457031 385.960938 C 436.527344 383.632812 437.742188 382.339844 440.097656 382.082031 C 440.171875 382.078125 440.207031 382.039062 440.207031 381.964844 L 440.207031 381.6875 C 440.207031 381.609375 440.179688 381.542969 440.125 381.488281 C 440.070312 381.4375 440.003906 381.410156 439.925781 381.410156 C 438.121094 381.386719 436.324219 381.378906 434.539062 381.386719 C 432.746094 381.378906 430.945312 381.386719 429.140625 381.410156 C 429.0625 381.410156 428.996094 381.4375 428.941406 381.488281 C 428.886719 381.542969 428.859375 381.609375 428.859375 381.6875 L 428.859375 381.964844 C 428.859375 382.039062 428.894531 382.078125 428.96875 382.082031 C 431.324219 382.339844 432.539062 383.632812 432.609375 385.960938 C 432.644531 387.109375 432.664062 395.003906 432.664062 409.644531 Z M 500.726562 432.332031 L 500.746094 385.339844 C 500.746094 384.753906 500.90625 384.21875 501.226562 383.730469 C 501.550781 383.242188 501.976562 382.882812 502.515625 382.652344 L 504.132812 381.953125 C 504.285156 381.882812 504.34375 381.761719 504.308594 381.597656 C 504.273438 381.433594 504.171875 381.351562 504.003906 381.34375 L 496.441406 381.34375 C 496.363281 381.34375 496.324219 381.382812 496.324219 381.460938 L 496.324219 381.773438 C 496.324219 381.882812 496.359375 381.980469 496.433594 382.0625 C 496.507812 382.144531 496.597656 382.191406 496.707031 382.203125 C 498.792969 382.4375 499.839844 383.597656 499.847656 385.683594 C 499.910156 400.921875 499.863281 416.261719 499.699219 431.699219 C 488.085938 416.261719 476.332031 400.484375 464.441406 384.363281 C 464.054688 383.84375 464.050781 383.332031 464.429688 382.832031 C 464.773438 382.382812 465.441406 382.066406 466.433594 381.878906 C 466.445312 381.878906 466.453125 381.871094 466.453125 381.847656 L 466.453125 381.570312 C 466.453125 381.425781 466.382812 381.355469 466.238281 381.355469 L 455.527344 381.355469 C 455.367188 381.363281 455.273438 381.449219 455.242188 381.605469 C 455.210938 381.761719 455.265625 381.875 455.410156 381.945312 C 457.867188 383.007812 459.070312 384.410156 459.019531 386.152344 C 458.882812 390.832031 458.890625 406.40625 459.039062 432.878906 C 459.054688 435.84375 457.941406 437.28125 455.699219 437.195312 C 455.613281 437.1875 455.558594 437.230469 455.535156 437.324219 C 455.480469 437.582031 455.59375 437.75 455.878906 437.828125 C 455.914062 437.835938 455.953125 437.839844 455.996094 437.839844 L 463.292969 437.839844 C 463.390625 437.839844 463.472656 437.804688 463.542969 437.734375 C 463.613281 437.667969 463.648438 437.582031 463.648438 437.484375 L 463.648438 437.207031 C 463.644531 437.164062 463.621094 437.136719 463.570312 437.132812 L 461.921875 436.929688 C 461.523438 436.878906 461.226562 436.675781 461.03125 436.316406 C 459.996094 434.417969 459.480469 432.800781 459.480469 431.464844 C 459.429688 418.003906 459.40625 402.347656 459.414062 384.492188 C 459.410156 384.191406 459.550781 383.988281 459.839844 383.894531 C 460.128906 383.796875 460.363281 383.871094 460.539062 384.117188 L 500.199219 437.433594 C 500.277344 437.535156 500.378906 437.566406 500.5 437.527344 C 500.621094 437.484375 500.683594 437.398438 500.683594 437.269531 Z M 525.078125 381.386719 C 522.863281 381.386719 521.035156 381.347656 519.59375 381.269531 C 519.4375 381.242188 519.34375 381.304688 519.316406 381.460938 C 519.289062 381.617188 519.351562 381.710938 519.507812 381.742188 C 522.007812 382.460938 523.246094 384.058594 523.222656 386.527344 C 523.203125 388.941406 523.210938 404.382812 523.246094 432.847656 C 523.246094 435.398438 522.121094 436.847656 519.871094 437.195312 C 519.792969 437.199219 519.730469 437.230469 519.679688 437.289062 C 519.628906 437.347656 519.605469 437.414062 519.609375 437.492188 C 519.613281 437.566406 519.644531 437.632812 519.703125 437.683594 C 519.757812 437.734375 519.824219 437.757812 519.902344 437.753906 C 522.046875 437.847656 523.769531 437.894531 525.078125 437.894531 C 526.390625 437.894531 528.117188 437.847656 530.253906 437.753906 C 530.328125 437.757812 530.394531 437.734375 530.453125 437.683594 C 530.511719 437.632812 530.542969 437.566406 530.546875 437.492188 C 530.550781 437.414062 530.527344 437.347656 530.476562 437.289062 C 530.425781 437.230469 530.359375 437.199219 530.285156 437.195312 C 528.035156 436.847656 526.910156 435.398438 526.910156 432.847656 C 526.945312 404.382812 526.953125 388.941406 526.929688 386.527344 C 526.910156 384.058594 528.148438 382.460938 530.648438 381.742188 C 530.804688 381.714844 530.871094 381.625 530.84375 381.46875 C 530.820312 381.3125 530.730469 381.246094 530.574219 381.269531 C 529.125 381.347656 527.292969 381.386719 525.078125 381.386719 Z M 1068.265625 416.628906 C 1082.929688 416.859375 1091.808594 416.839844 1094.902344 416.574219 C 1110.679688 415.226562 1115.277344 395.066406 1104.15625 385.359375 C 1102.527344 383.941406 1100.40625 382.90625 1097.792969 382.253906 C 1095.285156 381.625 1092.929688 381.300781 1090.722656 381.28125 C 1080.800781 381.171875 1072.339844 381.203125 1065.34375 381.367188 C 1065.179688 381.367188 1065.039062 381.429688 1064.925781 381.546875 C 1064.808594 381.660156 1064.753906 381.800781 1064.753906 381.964844 L 1064.753906 437.335938 C 1064.753906 437.488281 1064.804688 437.617188 1064.914062 437.722656 C 1065.019531 437.828125 1065.148438 437.882812 1065.300781 437.882812 L 1067.175781 437.882812 C 1067.316406 437.882812 1067.4375 437.832031 1067.539062 437.730469 C 1067.636719 437.632812 1067.6875 437.507812 1067.6875 437.367188 L 1067.6875 417.195312 C 1067.6875 417.039062 1067.746094 416.902344 1067.859375 416.792969 C 1067.972656 416.679688 1068.109375 416.625 1068.265625 416.628906 Z M 917.304688 381.410156 L 914.949219 381.410156 C 914.925781 381.40625 914.910156 381.417969 914.894531 381.441406 L 891.335938 436.242188 C 891.273438 436.398438 891.15625 436.480469 890.984375 436.480469 C 890.8125 436.480469 890.691406 436.398438 890.617188 436.242188 L 867.175781 381.953125 C 867.105469 381.785156 866.992188 381.648438 866.84375 381.550781 C 866.691406 381.449219 866.523438 381.398438 866.339844 381.398438 L 864.679688 381.398438 C 864.621094 381.398438 864.5625 381.414062 864.511719 381.441406 C 864.457031 381.472656 864.414062 381.511719 864.378906 381.5625 C 864.347656 381.613281 864.328125 381.671875 864.324219 381.734375 C 864.316406 381.792969 864.324219 381.855469 864.347656 381.910156 L 888.121094 436.980469 C 888.269531 437.320312 888.496094 437.59375 888.800781 437.800781 C 889.105469 438.007812 889.441406 438.117188 889.8125 438.128906 C 890.183594 438.140625 890.523438 438.054688 890.84375 437.867188 C 891.160156 437.675781 891.402344 437.417969 891.570312 437.089844 L 896.050781 428.242188 C 896.097656 428.132812 896.136719 428.023438 896.15625 427.910156 L 896.359375 426.503906 C 896.398438 426.246094 896.535156 426.078125 896.777344 425.992188 C 897.277344 425.804688 897.464844 425.503906 897.335938 425.082031 C 897.292969 424.917969 897.304688 424.753906 897.378906 424.597656 L 904.964844 409.023438 C 905.007812 408.9375 905.015625 408.847656 904.996094 408.757812 C 904.875 408.285156 905.015625 407.96875 905.421875 407.804688 C 905.714844 407.683594 905.875 407.460938 905.90625 407.136719 C 905.964844 406.453125 906.050781 405.984375 906.171875 405.734375 C 908.152344 401.871094 910.078125 398.035156 911.949219 394.230469 C 912.175781 393.773438 912.316406 393.328125 912.367188 392.890625 C 912.421875 392.261719 912.632812 391.851562 913 391.660156 C 913.347656 391.46875 913.511719 391.175781 913.492188 390.78125 C 913.46875 390.332031 913.558594 389.914062 913.757812 389.527344 C 915.171875 386.800781 916.445312 384.234375 917.574219 381.828125 C 917.621094 381.730469 917.613281 381.636719 917.554688 381.546875 C 917.496094 381.457031 917.414062 381.410156 917.304688 381.410156 Z M 1011.464844 437.582031 C 1011.464844 437.6875 1011.519531 437.742188 1011.625 437.742188 L 1046.21875 437.742188 C 1046.324219 437.742188 1046.378906 437.6875 1046.378906 437.582031 L 1046.378906 437.144531 C 1046.378906 437.035156 1046.324219 436.980469 1046.21875 436.980469 L 1014.539062 436.980469 C 1014.433594 436.980469 1014.378906 436.929688 1014.378906 436.820312 L 1014.378906 381.613281 C 1014.378906 381.503906 1014.324219 381.453125 1014.21875 381.453125 L 1011.625 381.453125 C 1011.519531 381.453125 1011.464844 381.503906 1011.464844 381.613281 Z M 1133.574219 381.828125 C 1133.574219 381.667969 1133.519531 381.53125 1133.40625 381.417969 C 1133.292969 381.304688 1133.15625 381.246094 1132.996094 381.246094 L 1131.496094 381.246094 C 1131.335938 381.246094 1131.203125 381.304688 1131.089844 381.417969 C 1130.976562 381.53125 1130.917969 381.667969 1130.917969 381.828125 L 1130.917969 437.269531 C 1130.917969 437.429688 1130.976562 437.566406 1131.089844 437.679688 C 1131.199219 437.792969 1131.335938 437.851562 1131.496094 437.851562 L 1132.996094 437.851562 C 1133.15625 437.851562 1133.292969 437.792969 1133.40625 437.679688 C 1133.519531 437.566406 1133.574219 437.429688 1133.574219 437.269531 Z M 594.082031 393.019531 L 592.839844 388.242188 C 592.683594 387.648438 592.378906 387.144531 591.929688 386.730469 C 589.265625 384.289062 586.039062 382.585938 582.253906 381.621094 C 582.167969 381.597656 582.085938 381.609375 582.007812 381.65625 C 581.929688 381.703125 581.878906 381.769531 581.859375 381.859375 L 581.847656 381.890625 C 581.824219 381.972656 581.832031 382.054688 581.871094 382.128906 C 581.910156 382.203125 581.96875 382.253906 582.050781 382.277344 C 587.679688 384.011719 591.546875 387.621094 593.652344 393.105469 C 593.714844 393.25 593.8125 393.296875 593.953125 393.246094 L 593.964844 393.246094 C 594.070312 393.210938 594.109375 393.136719 594.082031 393.019531 Z M 629.972656 420.796875 L 622.761719 421.386719 L 600.316406 421.4375 C 600.246094 421.441406 600.183594 421.425781 600.121094 421.390625 C 600.058594 421.359375 600.007812 421.3125 599.96875 421.253906 C 599.933594 421.195312 599.910156 421.128906 599.90625 421.0625 C 599.902344 420.992188 599.914062 420.925781 599.941406 420.859375 L 614.652344 386.648438 C 614.679688 386.589844 614.675781 386.53125 614.640625 386.476562 C 614.605469 386.421875 614.554688 386.398438 614.492188 386.398438 L 614.160156 386.398438 C 614.03125 386.402344 613.941406 386.457031 613.890625 386.570312 L 595.816406 427.683594 C 595.800781 427.734375 595.8125 427.769531 595.859375 427.792969 L 596.234375 427.953125 C 596.304688 427.980469 596.371094 427.984375 596.441406 427.957031 C 596.511719 427.929688 596.558594 427.882812 596.589844 427.8125 L 598.742188 422.800781 C 598.832031 422.597656 598.964844 422.4375 599.148438 422.316406 C 599.332031 422.195312 599.53125 422.136719 599.75 422.136719 L 622.496094 422.230469 C 625.285156 422.761719 627.960938 422.820312 630.519531 422.414062 C 633.261719 428.027344 634.941406 431.890625 635.554688 434.003906 C 636.082031 435.816406 635.511719 436.839844 633.839844 437.066406 C 633.742188 437.089844 633.667969 437.140625 633.609375 437.21875 C 633.550781 437.296875 633.523438 437.382812 633.53125 437.480469 C 633.535156 437.578125 633.574219 437.664062 633.644531 437.734375 C 633.710938 437.804688 633.796875 437.84375 633.894531 437.851562 L 644.316406 437.851562 C 644.394531 437.851562 644.453125 437.808594 644.488281 437.730469 L 644.597656 437.476562 C 644.625 437.398438 644.621094 437.328125 644.578125 437.261719 C 644.539062 437.191406 644.480469 437.15625 644.402344 437.152344 C 641.859375 436.953125 640.089844 435.699219 639.089844 433.394531 C 633.589844 420.710938 626.25 403.5625 617.074219 381.945312 C 616.964844 381.699219 616.773438 381.574219 616.503906 381.574219 C 616.238281 381.574219 616.046875 381.699219 615.9375 381.945312 L 614.878906 384.417969 C 614.675781 384.875 614.675781 385.335938 614.878906 385.800781 Z M 629.972656 420.796875 " fill-opacity="1" fill-rule="nonzero"/></g><path fill="#111111" d="M 787.339844 444.40625 C 787.296875 443.304688 787.238281 442.660156 787.160156 442.464844 C 787.058594 442.21875 787.027344 441.957031 787.058594 441.6875 C 787.089844 441.421875 787.183594 441.171875 787.339844 440.9375 C 787.496094 440.707031 787.695312 440.515625 787.941406 440.371094 C 788.1875 440.222656 788.457031 440.132812 788.746094 440.097656 C 789.714844 439.992188 790.878906 439.988281 792.238281 440.089844 C 792.660156 440.117188 793.039062 440.253906 793.382812 440.496094 C 797.261719 443.238281 800.152344 449.6875 794.230469 452.289062 C 793.914062 452.425781 793.585938 452.511719 793.242188 452.546875 C 785.636719 453.265625 775.074219 449.011719 768.65625 445.261719 C 766.042969 443.742188 760.542969 439.875 752.15625 433.660156 C 750.679688 432.570312 748.78125 431.867188 746.457031 431.5625 C 744.910156 431.363281 741.851562 431.910156 737.289062 433.210938 C 736.582031 433.410156 734.421875 433.375 730.804688 433.105469 C 730.433594 433.074219 730.082031 432.988281 729.746094 432.835938 C 725.890625 431.078125 720.96875 429.730469 714.984375 428.789062 C 711.328125 428.210938 707.324219 424.953125 705.597656 421.855469 C 704.777344 420.394531 704.796875 418.460938 705.664062 416.0625 C 705.777344 415.746094 705.972656 415.496094 706.25 415.300781 C 711.15625 411.960938 719.011719 412.65625 724.421875 413.984375 C 729.40625 415.210938 734.851562 417.203125 740.757812 419.960938 C 743.109375 421.0625 745.769531 420.972656 748.742188 419.691406 C 752.265625 418.171875 755.628906 417.003906 758.960938 415.214844 C 761.023438 414.109375 763.066406 413.257812 765.089844 412.667969 C 765.21875 412.628906 765.296875 412.546875 765.320312 412.414062 C 765.34375 412.285156 765.304688 412.179688 765.195312 412.097656 C 756.398438 405.621094 751.511719 402.019531 750.539062 401.289062 C 746.351562 398.152344 741.851562 393.460938 737.09375 392.828125 C 731.941406 392.132812 727.226562 393.417969 722.171875 394.242188 C 715.636719 395.3125 709.746094 396.09375 704.503906 396.585938 C 697.398438 397.265625 691.320312 395.425781 686.269531 391.070312 C 683.886719 389.015625 682.785156 386.359375 682.972656 383.101562 C 683.027344 382.03125 683.296875 381.207031 683.773438 380.636719 C 685.261719 378.835938 686.992188 377.644531 688.972656 377.058594 C 694.457031 375.429688 699.722656 374.902344 704.773438 375.472656 C 713.652344 376.472656 722.046875 378.402344 729.960938 381.257812 C 733.367188 382.480469 736.539062 385.394531 740.160156 385.136719 C 740.566406 385.101562 740.964844 385.015625 741.359375 384.878906 C 758.4375 378.808594 776.875 372.671875 796.671875 366.464844 C 806.355469 363.421875 816.277344 365.203125 822.074219 373.320312 C 823.53125 375.367188 822.535156 379.78125 819.09375 378.957031 C 818.78125 378.878906 818.5 378.738281 818.25 378.539062 C 816.070312 376.738281 814.257812 374.59375 812.808594 372.101562 C 812.527344 371.621094 812.152344 371.230469 811.683594 370.929688 C 811.214844 370.632812 810.703125 370.457031 810.148438 370.40625 C 807.847656 370.191406 804.566406 370.730469 802.15625 371.425781 C 794.414062 373.667969 786.730469 376.003906 779.101562 378.429688 C 773.238281 380.292969 761.980469 384.066406 745.324219 389.742188 C 745.226562 389.777344 745.171875 389.84375 745.160156 389.945312 C 745.148438 390.046875 745.183594 390.125 745.269531 390.179688 C 748.203125 392.058594 755.953125 397.195312 768.515625 405.585938 C 772 407.921875 775.394531 407.675781 779.542969 406.582031 C 793.609375 402.875 803.96875 399.382812 815.582031 401.503906 C 822.695312 402.800781 827.945312 409.550781 825.535156 416.855469 C 823.542969 422.84375 815.183594 425.402344 809.484375 425.617188 C 805.492188 425.765625 801.660156 425.390625 797.988281 424.492188 C 795.738281 423.941406 789.609375 422.222656 779.59375 419.328125 C 777.082031 418.609375 774.617188 418.402344 772.203125 418.71875 C 772.109375 418.734375 772.019531 418.757812 771.933594 418.792969 L 756.902344 425.261719 C 756.601562 425.394531 756.332031 425.578125 756.09375 425.808594 C 755.859375 426.042969 755.671875 426.308594 755.535156 426.613281 C 755.402344 426.914062 755.324219 427.230469 755.308594 427.5625 C 755.289062 427.894531 755.332031 428.214844 755.4375 428.53125 C 755.6875 429.292969 756.230469 429.984375 757.066406 430.597656 C 763.449219 435.3125 771.828125 440.785156 779.671875 443.34375 C 781.320312 443.878906 786.453125 444.246094 786.847656 444.621094 C 786.941406 444.710938 787.046875 444.730469 787.167969 444.679688 C 787.285156 444.628906 787.34375 444.535156 787.339844 444.40625 Z M 729.433594 388.574219 C 729.65625 388.53125 729.851562 388.429688 730.011719 388.273438 C 730.175781 388.117188 730.28125 387.925781 730.328125 387.703125 C 730.378906 387.484375 730.363281 387.265625 730.28125 387.054688 C 730.199219 386.84375 730.070312 386.671875 729.886719 386.539062 C 728.785156 385.753906 727.46875 385.027344 725.933594 384.363281 C 725.546875 384.199219 721.722656 383.132812 714.457031 381.164062 C 707.953125 379.40625 696.320312 378.589844 689.582031 381.996094 C 687.816406 382.890625 687.191406 384.5625 687.707031 387.011719 C 687.785156 387.375 687.953125 387.6875 688.210938 387.941406 C 693.757812 393.4375 706.421875 393.171875 713.535156 391.734375 C 721.421875 390.148438 726.722656 389.097656 729.433594 388.574219 Z M 782.808594 411.90625 C 782.199219 414.003906 783.804688 415.152344 785.832031 415.699219 C 795.152344 418.195312 801.953125 420.390625 810.03125 420.195312 C 814.390625 420.089844 820.1875 418.976562 822.03125 414.980469 C 823.066406 412.738281 822.867188 410.796875 821.429688 409.152344 C 814.800781 401.570312 792.933594 408.875 784.511719 411.390625 C 784.382812 411.433594 784.265625 411.441406 784.160156 411.414062 C 784.144531 411.40625 784.015625 411.378906 783.773438 411.328125 C 783.558594 411.285156 783.359375 411.320312 783.175781 411.429688 C 782.992188 411.539062 782.867188 411.699219 782.808594 411.90625 Z M 735.671875 424.042969 C 735.765625 423.902344 735.824219 423.75 735.851562 423.582031 C 735.878906 423.417969 735.867188 423.25 735.824219 423.082031 C 735.777344 422.914062 735.703125 422.761719 735.59375 422.621094 C 735.484375 422.480469 735.355469 422.363281 735.199219 422.273438 C 732.929688 420.960938 730.304688 419.980469 727.324219 419.339844 C 723.46875 418.503906 719.617188 417.726562 715.777344 417.003906 C 713.820312 416.632812 711.792969 417.125 709.699219 418.484375 C 709.394531 418.683594 709.167969 418.949219 709.027344 419.285156 C 708.011719 421.683594 708.703125 423.261719 711.09375 424.011719 C 718.515625 426.324219 726.109375 426.644531 733.882812 424.972656 C 734.796875 424.773438 735.390625 424.464844 735.671875 424.042969 Z M 735.671875 424.042969 " fill-opacity="1" fill-rule="nonzero"/><path fill="#f0f5f4" d="M 729.433594 388.574219 C 726.722656 389.097656 721.421875 390.148438 713.535156 391.734375 C 706.421875 393.171875 693.757812 393.4375 688.210938 387.941406 C 687.953125 387.6875 687.785156 387.375 687.707031 387.011719 C 687.191406 384.5625 687.816406 382.890625 689.582031 381.996094 C 696.320312 378.589844 707.953125 379.40625 714.457031 381.164062 C 721.722656 383.132812 725.546875 384.199219 725.933594 384.363281 C 727.46875 385.027344 728.785156 385.753906 729.886719 386.539062 C 730.070312 386.671875 730.199219 386.84375 730.28125 387.054688 C 730.363281 387.265625 730.378906 387.484375 730.328125 387.703125 C 730.28125 387.925781 730.175781 388.117188 730.011719 388.273438 C 729.851562 388.429688 729.65625 388.53125 729.433594 388.574219 Z M 729.433594 388.574219 " fill-opacity="1" fill-rule="nonzero"/><path fill="#111111" d="M 592.957031 431.058594 C 589.566406 435.035156 585.386719 437.441406 580.421875 438.277344 C 573.902344 439.371094 567.695312 438.585938 561.804688 435.921875 C 560.882812 435.5 560.183594 435.140625 559.703125 434.839844 C 552.746094 430.492188 548.460938 424.15625 546.847656 415.835938 C 545.867188 410.796875 545.992188 405.945312 547.222656 401.289062 C 549.804688 391.46875 555.921875 384.738281 565.390625 381.773438 C 568.402344 380.839844 570.480469 380.90625 574.089844 380.476562 C 576.363281 380.207031 578.597656 380.558594 580.796875 381.535156 C 580.917969 381.589844 580.957031 381.679688 580.917969 381.804688 C 580.875 381.929688 580.792969 381.972656 580.667969 381.933594 L 576.597656 381.011719 C 576.441406 380.976562 576.285156 380.957031 576.125 380.957031 C 567.492188 380.84375 560.722656 383.914062 555.824219 390.171875 C 554.316406 392.097656 553.265625 393.804688 552.664062 395.292969 C 548.820312 404.832031 548.910156 414.382812 552.933594 423.945312 C 553.953125 426.386719 556.261719 429.4375 559.851562 433.09375 C 560.238281 433.484375 560.699219 433.734375 561.234375 433.84375 C 562.390625 434.070312 563.152344 435.503906 564.632812 436.0625 C 573.34375 439.394531 581.472656 438.96875 589.015625 434.777344 C 589.722656 434.382812 591.035156 433.144531 592.957031 431.058594 Z M 592.957031 431.058594 " fill-opacity="1" fill-rule="nonzero"/><path fill="#111111" d="M 356.246094 425.894531 C 356.308594 425.757812 356.410156 425.71875 356.554688 425.777344 L 356.566406 425.777344 C 356.644531 425.835938 356.671875 425.910156 356.640625 426.003906 L 354.777344 431.871094 C 354.671875 432.207031 354.472656 432.476562 354.1875 432.675781 C 345.929688 438.726562 335.34375 440.347656 325.851562 437.269531 C 320.332031 435.484375 315.875 432.277344 312.480469 427.640625 C 307.609375 420.976562 305.769531 413.289062 306.964844 404.566406 C 308.59375 392.710938 316.800781 383.699219 328.667969 381.203125 C 336.984375 379.449219 344.871094 381.210938 352.335938 386.496094 C 352.714844 386.769531 352.960938 387.125 353.074219 387.566406 L 354.636719 393.40625 C 354.640625 393.414062 354.636719 393.421875 354.628906 393.425781 L 354.339844 393.554688 C 354.242188 393.59375 354.148438 393.589844 354.058594 393.542969 C 353.96875 393.496094 353.910156 393.421875 353.886719 393.320312 L 353.460938 391.445312 C 353.417969 391.253906 353.34375 391.078125 353.234375 390.921875 C 348.085938 383.238281 340.828125 380.0625 331.464844 381.398438 C 315.511719 383.679688 308.882812 399.125 310.542969 413.855469 C 311.535156 422.667969 315.550781 429.527344 322.59375 434.433594 C 326.808594 437.367188 331.921875 438.621094 337.9375 438.191406 C 346.507812 437.585938 352.609375 433.488281 356.246094 425.894531 Z M 356.246094 425.894531 " fill-opacity="1" fill-rule="nonzero"/><path fill="#111111" d="M 961.445312 380.679688 C 973.292969 380.457031 982.59375 386.121094 987.273438 397.058594 C 988.929688 400.929688 989.796875 404.972656 989.867188 409.183594 C 989.945312 413.40625 989.230469 417.476562 987.722656 421.394531 C 983.449219 432.503906 974.375 438.515625 962.515625 438.726562 C 950.65625 438.953125 941.367188 433.285156 936.683594 422.347656 C 935.027344 418.480469 934.160156 414.4375 934.082031 410.222656 C 934.003906 406.003906 934.722656 401.933594 936.234375 398.011719 C 940.511719 386.902344 949.585938 380.894531 961.445312 380.679688 Z M 936.921875 409.507812 C 936.867188 416.179688 938.613281 422.648438 942.042969 427.714844 C 946.714844 434.625 953.460938 437.988281 961.722656 438.0625 C 969.992188 438.140625 976.796875 434.894531 981.597656 428.070312 C 985.109375 423.066406 986.972656 416.628906 987.039062 409.957031 C 987.101562 403.273438 985.34375 396.800781 981.929688 391.746094 C 977.246094 384.824219 970.496094 381.460938 962.238281 381.386719 C 953.976562 381.3125 947.164062 384.558594 942.363281 391.390625 C 938.847656 396.382812 936.984375 402.820312 936.921875 409.507812 Z M 936.921875 409.507812 " fill-opacity="1" fill-rule="nonzero"/><path fill="#111111" d="M 378.988281 437.207031 L 410.746094 437.015625 C 411.058594 437.015625 411.347656 436.933594 411.613281 436.769531 C 413.425781 435.625 414.589844 434.027344 415.105469 431.980469 C 415.136719 431.855469 415.214844 431.800781 415.339844 431.820312 L 415.351562 431.820312 C 415.433594 431.828125 415.5 431.871094 415.550781 431.9375 C 415.601562 432.003906 415.621094 432.078125 415.609375 432.160156 C 415.316406 434.046875 414.652344 435.746094 413.617188 437.261719 C 413.421875 437.539062 413.15625 437.675781 412.824219 437.679688 L 371.007812 437.679688 C 370.972656 437.679688 370.953125 437.65625 370.953125 437.613281 L 370.953125 437.347656 C 370.953125 437.261719 370.984375 437.1875 371.046875 437.125 C 371.105469 437.066406 371.179688 437.035156 371.265625 437.035156 C 373.59375 436.992188 374.761719 435.742188 374.769531 433.285156 C 374.847656 415.410156 374.84375 399.398438 374.757812 385.242188 C 374.75 383.242188 373.589844 382.167969 371.277344 382.019531 C 371.1875 382.011719 371.109375 381.976562 371.046875 381.910156 C 370.984375 381.839844 370.953125 381.757812 370.953125 381.664062 L 370.953125 381.398438 C 370.953125 381.371094 370.96875 381.355469 370.996094 381.355469 L 382.417969 381.355469 C 382.46875 381.355469 382.492188 381.378906 382.492188 381.429688 L 382.492188 381.761719 C 382.492188 381.957031 382.394531 382.074219 382.203125 382.117188 C 379.820312 382.628906 378.617188 383.914062 378.605469 385.972656 C 378.546875 395.035156 378.535156 411.972656 378.570312 436.789062 C 378.570312 436.90625 378.613281 437.003906 378.695312 437.085938 C 378.777344 437.167969 378.875 437.207031 378.988281 437.207031 Z M 378.988281 437.207031 " fill-opacity="1" fill-rule="nonzero"/><path fill="#111111" d="M 434.539062 381.386719 C 436.324219 381.378906 438.121094 381.386719 439.925781 381.410156 C 440.003906 381.410156 440.070312 381.4375 440.125 381.488281 C 440.179688 381.542969 440.207031 381.609375 440.207031 381.6875 L 440.207031 381.964844 C 440.207031 382.039062 440.171875 382.078125 440.097656 382.082031 C 437.742188 382.339844 436.527344 383.632812 436.457031 385.960938 C 436.429688 387.109375 436.414062 395.003906 436.414062 409.644531 C 436.414062 424.277344 436.429688 432.171875 436.46875 433.328125 C 436.539062 435.648438 437.753906 436.9375 440.109375 437.195312 C 440.179688 437.203125 440.21875 437.242188 440.21875 437.3125 L 440.21875 437.59375 C 440.21875 437.667969 440.191406 437.734375 440.136719 437.789062 C 440.082031 437.84375 440.015625 437.871094 439.9375 437.871094 C 438.132812 437.894531 436.332031 437.902344 434.539062 437.902344 C 432.753906 437.902344 430.957031 437.894531 429.148438 437.871094 C 429.074219 437.871094 429.007812 437.84375 428.953125 437.789062 C 428.898438 437.734375 428.871094 437.667969 428.871094 437.59375 L 428.871094 437.3125 C 428.871094 437.242188 428.90625 437.203125 428.980469 437.195312 C 431.335938 436.9375 432.550781 435.648438 432.621094 433.328125 C 432.648438 432.171875 432.664062 424.277344 432.664062 409.644531 C 432.664062 395.003906 432.644531 387.109375 432.609375 385.960938 C 432.539062 383.632812 431.324219 382.339844 428.96875 382.082031 C 428.894531 382.078125 428.859375 382.039062 428.859375 381.964844 L 428.859375 381.6875 C 428.859375 381.609375 428.886719 381.542969 428.941406 381.488281 C 428.996094 381.4375 429.0625 381.410156 429.140625 381.410156 C 430.945312 381.386719 432.746094 381.378906 434.539062 381.386719 Z M 434.539062 381.386719 " fill-opacity="1" fill-rule="nonzero"/><path fill="#111111" d="M 499.699219 431.699219 C 499.667969 431.910156 499.722656 432.117188 499.859375 432.324219 C 499.988281 432.53125 500.277344 432.53125 500.726562 432.332031 L 500.683594 437.269531 C 500.683594 437.398438 500.621094 437.484375 500.5 437.527344 C 500.378906 437.566406 500.277344 437.535156 500.199219 437.433594 L 460.539062 384.117188 C 460.363281 383.871094 460.128906 383.796875 459.839844 383.894531 C 459.550781 383.988281 459.410156 384.191406 459.414062 384.492188 C 459.40625 402.347656 459.429688 418.003906 459.480469 431.464844 C 459.480469 432.800781 459.996094 434.417969 461.03125 436.316406 C 461.226562 436.675781 461.523438 436.878906 461.921875 436.929688 L 463.570312 437.132812 C 463.621094 437.136719 463.644531 437.164062 463.648438 437.207031 L 463.648438 437.484375 C 463.648438 437.582031 463.613281 437.667969 463.542969 437.734375 C 463.472656 437.804688 463.390625 437.839844 463.292969 437.839844 L 455.996094 437.839844 C 455.953125 437.839844 455.914062 437.835938 455.878906 437.828125 C 455.59375 437.75 455.480469 437.582031 455.535156 437.324219 C 455.558594 437.230469 455.613281 437.1875 455.699219 437.195312 C 457.941406 437.28125 459.054688 435.84375 459.039062 432.878906 C 458.890625 406.40625 458.882812 390.832031 459.019531 386.152344 C 459.070312 384.410156 457.867188 383.007812 455.410156 381.945312 C 455.265625 381.875 455.210938 381.761719 455.242188 381.605469 C 455.273438 381.449219 455.367188 381.363281 455.527344 381.355469 L 466.238281 381.355469 C 466.382812 381.355469 466.453125 381.425781 466.453125 381.570312 L 466.453125 381.847656 C 466.453125 381.871094 466.445312 381.878906 466.433594 381.878906 C 465.441406 382.066406 464.773438 382.382812 464.429688 382.832031 C 464.050781 383.332031 464.054688 383.84375 464.441406 384.363281 C 476.332031 400.484375 488.085938 416.261719 499.699219 431.699219 Z M 499.699219 431.699219 " fill-opacity="1" fill-rule="nonzero"/><path fill="#191b1b" d="M 500.726562 432.332031 C 500.277344 432.53125 499.988281 432.53125 499.859375 432.324219 C 499.722656 432.117188 499.667969 431.910156 499.699219 431.699219 C 499.863281 416.261719 499.910156 400.921875 499.847656 385.683594 C 499.839844 383.597656 498.792969 382.4375 496.707031 382.203125 C 496.597656 382.191406 496.507812 382.144531 496.433594 382.0625 C 496.359375 381.980469 496.324219 381.882812 496.324219 381.773438 L 496.324219 381.460938 C 496.324219 381.382812 496.363281 381.34375 496.441406 381.34375 L 504.003906 381.34375 C 504.171875 381.351562 504.273438 381.433594 504.308594 381.597656 C 504.34375 381.761719 504.285156 381.882812 504.132812 381.953125 L 502.515625 382.652344 C 501.976562 382.882812 501.550781 383.242188 501.226562 383.730469 C 500.90625 384.21875 500.746094 384.753906 500.746094 385.339844 Z M 500.726562 432.332031 " fill-opacity="1" fill-rule="nonzero"/><path fill="#111111" d="M 525.078125 437.894531 C 523.769531 437.894531 522.046875 437.847656 519.902344 437.753906 C 519.824219 437.757812 519.757812 437.734375 519.703125 437.683594 C 519.644531 437.632812 519.613281 437.566406 519.609375 437.492188 C 519.605469 437.414062 519.628906 437.347656 519.679688 437.289062 C 519.730469 437.230469 519.792969 437.199219 519.871094 437.195312 C 522.121094 436.847656 523.246094 435.398438 523.246094 432.847656 C 523.210938 404.382812 523.203125 388.941406 523.222656 386.527344 C 523.246094 384.058594 522.007812 382.460938 519.507812 381.742188 C 519.351562 381.710938 519.289062 381.617188 519.316406 381.460938 C 519.34375 381.304688 519.4375 381.242188 519.59375 381.269531 C 521.035156 381.347656 522.863281 381.386719 525.078125 381.386719 C 527.292969 381.386719 529.125 381.347656 530.574219 381.269531 C 530.730469 381.246094 530.820312 381.3125 530.84375 381.46875 C 530.871094 381.625 530.804688 381.714844 530.648438 381.742188 C 528.148438 382.460938 526.910156 384.058594 526.929688 386.527344 C 526.953125 388.941406 526.945312 404.382812 526.910156 432.847656 C 526.910156 435.398438 528.035156 436.847656 530.285156 437.195312 C 530.359375 437.199219 530.425781 437.230469 530.476562 437.289062 C 530.527344 437.347656 530.550781 437.414062 530.546875 437.492188 C 530.542969 437.566406 530.511719 437.632812 530.453125 437.683594 C 530.394531 437.734375 530.328125 437.757812 530.253906 437.753906 C 528.117188 437.847656 526.390625 437.894531 525.078125 437.894531 Z M 525.078125 437.894531 " fill-opacity="1" fill-rule="nonzero"/><path fill="#111111" d="M 1067.6875 417.195312 L 1067.6875 437.367188 C 1067.6875 437.507812 1067.636719 437.632812 1067.539062 437.730469 C 1067.4375 437.832031 1067.316406 437.882812 1067.175781 437.882812 L 1065.300781 437.882812 C 1065.148438 437.882812 1065.019531 437.828125 1064.914062 437.722656 C 1064.804688 437.617188 1064.753906 437.488281 1064.753906 437.335938 L 1064.753906 381.964844 C 1064.753906 381.800781 1064.808594 381.660156 1064.925781 381.546875 C 1065.039062 381.429688 1065.179688 381.367188 1065.34375 381.367188 C 1072.339844 381.203125 1080.800781 381.171875 1090.722656 381.28125 C 1092.929688 381.300781 1095.285156 381.625 1097.792969 382.253906 C 1100.40625 382.90625 1102.527344 383.941406 1104.15625 385.359375 C 1115.277344 395.066406 1110.679688 415.226562 1094.902344 416.574219 C 1091.808594 416.839844 1082.929688 416.859375 1068.265625 416.628906 C 1068.109375 416.625 1067.972656 416.679688 1067.859375 416.792969 C 1067.746094 416.902344 1067.6875 417.039062 1067.6875 417.195312 Z M 1067.785156 382.746094 L 1067.613281 415.183594 C 1067.609375 415.390625 1067.683594 415.570312 1067.828125 415.71875 C 1067.976562 415.871094 1068.152344 415.945312 1068.363281 415.945312 L 1091.988281 416.0625 C 1092.984375 416.066406 1093.96875 415.96875 1094.949219 415.773438 C 1095.925781 415.578125 1096.875 415.28125 1097.796875 414.890625 C 1098.722656 414.5 1099.597656 414.019531 1100.429688 413.449219 C 1101.261719 412.878906 1102.03125 412.230469 1102.738281 411.503906 C 1103.445312 410.773438 1104.078125 409.984375 1104.636719 409.125 C 1105.195312 408.269531 1105.667969 407.363281 1106.054688 406.410156 C 1106.441406 405.457031 1106.734375 404.472656 1106.933594 403.460938 C 1107.132812 402.449219 1107.238281 401.425781 1107.242188 400.390625 L 1107.261719 397.96875 C 1107.269531 396.933594 1107.179688 395.90625 1106.988281 394.890625 C 1106.800781 393.875 1106.515625 392.886719 1106.140625 391.929688 C 1105.765625 390.972656 1105.300781 390.058594 1104.75 389.195312 C 1104.203125 388.332031 1103.578125 387.53125 1102.875 386.796875 C 1102.171875 386.0625 1101.410156 385.402344 1100.582031 384.824219 C 1099.757812 384.246094 1098.882812 383.753906 1097.964844 383.355469 C 1097.046875 382.953125 1096.097656 382.648438 1095.121094 382.441406 C 1094.140625 382.238281 1093.15625 382.132812 1092.15625 382.125 L 1068.535156 382.007812 C 1068.328125 382.007812 1068.15625 382.082031 1068.007812 382.222656 C 1067.863281 382.367188 1067.789062 382.542969 1067.785156 382.746094 Z M 1067.785156 382.746094 " fill-opacity="1" fill-rule="nonzero"/><path fill="#111111" d="M 917.574219 381.828125 C 916.445312 384.234375 915.171875 386.800781 913.757812 389.527344 C 913.558594 389.914062 913.46875 390.332031 913.492188 390.78125 C 913.511719 391.175781 913.347656 391.46875 913 391.660156 C 912.632812 391.851562 912.421875 392.261719 912.367188 392.890625 C 912.316406 393.328125 912.175781 393.773438 911.949219 394.230469 C 910.078125 398.035156 908.152344 401.871094 906.171875 405.734375 C 906.050781 405.984375 905.964844 406.453125 905.90625 407.136719 C 905.875 407.460938 905.714844 407.683594 905.421875 407.804688 C 905.015625 407.96875 904.875 408.285156 904.996094 408.757812 C 905.015625 408.847656 905.007812 408.9375 904.964844 409.023438 L 897.378906 424.597656 C 897.304688 424.753906 897.292969 424.917969 897.335938 425.082031 C 897.464844 425.503906 897.277344 425.804688 896.777344 425.992188 C 896.535156 426.078125 896.398438 426.246094 896.359375 426.503906 L 896.15625 427.910156 C 896.136719 428.023438 896.097656 428.132812 896.050781 428.242188 L 891.570312 437.089844 C 891.402344 437.417969 891.160156 437.675781 890.84375 437.867188 C 890.523438 438.054688 890.183594 438.140625 889.8125 438.128906 C 889.441406 438.117188 889.105469 438.007812 888.800781 437.800781 C 888.496094 437.59375 888.269531 437.320312 888.121094 436.980469 L 864.347656 381.910156 C 864.324219 381.855469 864.316406 381.792969 864.324219 381.734375 C 864.328125 381.671875 864.347656 381.613281 864.378906 381.5625 C 864.414062 381.511719 864.457031 381.472656 864.511719 381.441406 C 864.5625 381.414062 864.621094 381.398438 864.679688 381.398438 L 866.339844 381.398438 C 866.523438 381.398438 866.691406 381.449219 866.84375 381.550781 C 866.992188 381.648438 867.105469 381.785156 867.175781 381.953125 L 890.617188 436.242188 C 890.691406 436.398438 890.8125 436.480469 890.984375 436.480469 C 891.15625 436.480469 891.273438 436.398438 891.335938 436.242188 L 914.894531 381.441406 C 914.910156 381.417969 914.925781 381.40625 914.949219 381.410156 L 917.304688 381.410156 C 917.414062 381.410156 917.496094 381.457031 917.554688 381.546875 C 917.613281 381.636719 917.621094 381.730469 917.574219 381.828125 Z M 917.574219 381.828125 " fill-opacity="1" fill-rule="nonzero"/><path fill="#f1f6f5" d="M 962.238281 381.386719 C 970.496094 381.460938 977.246094 384.824219 981.929688 391.746094 C 985.34375 396.800781 987.101562 403.273438 987.039062 409.957031 C 986.972656 416.628906 985.109375 423.066406 981.597656 428.070312 C 976.796875 434.894531 969.992188 438.140625 961.722656 438.0625 C 953.460938 437.988281 946.714844 434.625 942.042969 427.714844 C 938.613281 422.648438 936.867188 416.179688 936.921875 409.507812 C 936.984375 402.820312 938.847656 396.382812 942.363281 391.390625 C 947.164062 384.558594 953.976562 381.3125 962.238281 381.386719 Z M 962.238281 381.386719 " fill-opacity="1" fill-rule="nonzero"/><path fill="#111111" d="M 1011.464844 437.582031 L 1011.464844 381.613281 C 1011.464844 381.503906 1011.519531 381.453125 1011.625 381.453125 L 1014.21875 381.453125 C 1014.324219 381.453125 1014.378906 381.503906 1014.378906 381.613281 L 1014.378906 436.820312 C 1014.378906 436.929688 1014.433594 436.980469 1014.539062 436.980469 L 1046.21875 436.980469 C 1046.324219 436.980469 1046.378906 437.035156 1046.378906 437.144531 L 1046.378906 437.582031 C 1046.378906 437.6875 1046.324219 437.742188 1046.21875 437.742188 L 1011.625 437.742188 C 1011.519531 437.742188 1011.464844 437.6875 1011.464844 437.582031 Z M 1011.464844 437.582031 " fill-opacity="1" fill-rule="nonzero"/><path fill="#111111" d="M 1131.496094 381.246094 L 1132.996094 381.246094 C 1133.15625 381.246094 1133.292969 381.304688 1133.40625 381.417969 C 1133.519531 381.53125 1133.574219 381.667969 1133.574219 381.828125 L 1133.574219 437.269531 C 1133.574219 437.429688 1133.519531 437.566406 1133.40625 437.679688 C 1133.292969 437.792969 1133.15625 437.851562 1132.996094 437.851562 L 1131.496094 437.851562 C 1131.335938 437.851562 1131.199219 437.792969 1131.089844 437.679688 C 1130.976562 437.566406 1130.917969 437.429688 1130.917969 437.269531 L 1130.917969 381.828125 C 1130.917969 381.667969 1130.976562 381.53125 1131.089844 381.417969 C 1131.199219 381.304688 1131.335938 381.246094 1131.496094 381.246094 Z M 1131.496094 381.246094 " fill-opacity="1" fill-rule="nonzero"/><path fill="#111111" d="M 594.082031 393.019531 C 594.109375 393.136719 594.070312 393.210938 593.964844 393.246094 L 593.953125 393.246094 C 593.8125 393.296875 593.714844 393.25 593.652344 393.105469 C 591.546875 387.621094 587.679688 384.011719 582.050781 382.277344 C 581.96875 382.253906 581.910156 382.203125 581.871094 382.128906 C 581.832031 382.054688 581.824219 381.972656 581.847656 381.890625 L 581.859375 381.859375 C 581.878906 381.769531 581.929688 381.703125 582.007812 381.65625 C 582.085938 381.609375 582.167969 381.597656 582.253906 381.621094 C 586.039062 382.585938 589.265625 384.289062 591.929688 386.730469 C 592.378906 387.144531 592.683594 387.648438 592.839844 388.242188 Z M 594.082031 393.019531 " fill-opacity="1" fill-rule="nonzero"/><path fill="#111111" d="M 630.519531 422.414062 C 630.5625 421.664062 630.378906 421.125 629.972656 420.796875 L 614.878906 385.800781 C 614.675781 385.335938 614.675781 384.875 614.878906 384.417969 L 615.9375 381.945312 C 616.046875 381.699219 616.238281 381.574219 616.503906 381.574219 C 616.773438 381.574219 616.964844 381.699219 617.074219 381.945312 C 626.25 403.5625 633.589844 420.710938 639.089844 433.394531 C 640.089844 435.699219 641.859375 436.953125 644.402344 437.152344 C 644.480469 437.15625 644.539062 437.191406 644.578125 437.261719 C 644.621094 437.328125 644.625 437.398438 644.597656 437.476562 L 644.488281 437.730469 C 644.453125 437.808594 644.394531 437.851562 644.316406 437.851562 L 633.894531 437.851562 C 633.796875 437.84375 633.710938 437.804688 633.644531 437.734375 C 633.574219 437.664062 633.535156 437.578125 633.53125 437.480469 C 633.523438 437.382812 633.550781 437.296875 633.609375 437.21875 C 633.667969 437.140625 633.742188 437.089844 633.839844 437.066406 C 635.511719 436.839844 636.082031 435.816406 635.554688 434.003906 C 634.941406 431.890625 633.261719 428.027344 630.519531 422.414062 Z M 630.519531 422.414062 " fill-opacity="1" fill-rule="nonzero"/><path fill="#f1f6f5" d="M 1067.785156 382.746094 C 1067.789062 382.542969 1067.863281 382.367188 1068.007812 382.222656 C 1068.15625 382.082031 1068.328125 382.007812 1068.535156 382.007812 L 1092.15625 382.125 C 1093.15625 382.132812 1094.140625 382.238281 1095.121094 382.441406 C 1096.097656 382.648438 1097.046875 382.953125 1097.964844 383.355469 C 1098.882812 383.753906 1099.757812 384.246094 1100.582031 384.824219 C 1101.410156 385.402344 1102.171875 386.0625 1102.875 386.796875 C 1103.578125 387.53125 1104.203125 388.332031 1104.75 389.195312 C 1105.300781 390.058594 1105.765625 390.972656 1106.140625 391.929688 C 1106.515625 392.886719 1106.800781 393.875 1106.988281 394.890625 C 1107.179688 395.90625 1107.269531 396.933594 1107.261719 397.96875 L 1107.242188 400.390625 C 1107.238281 401.425781 1107.132812 402.449219 1106.933594 403.460938 C 1106.734375 404.472656 1106.441406 405.457031 1106.054688 406.410156 C 1105.667969 407.363281 1105.195312 408.269531 1104.636719 409.125 C 1104.078125 409.984375 1103.445312 410.773438 1102.738281 411.503906 C 1102.03125 412.230469 1101.261719 412.878906 1100.429688 413.449219 C 1099.597656 414.019531 1098.722656 414.5 1097.796875 414.890625 C 1096.875 415.28125 1095.925781 415.578125 1094.949219 415.773438 C 1093.96875 415.96875 1092.984375 416.066406 1091.988281 416.0625 L 1068.363281 415.945312 C 1068.152344 415.945312 1067.976562 415.871094 1067.828125 415.71875 C 1067.683594 415.570312 1067.609375 415.390625 1067.613281 415.183594 Z M 1067.785156 382.746094 " fill-opacity="1" fill-rule="nonzero"/><path fill="#646766" d="M 622.761719 421.386719 C 623.019531 421.765625 622.929688 422.046875 622.496094 422.230469 L 599.75 422.136719 C 599.53125 422.136719 599.332031 422.195312 599.148438 422.316406 C 598.964844 422.4375 598.832031 422.597656 598.742188 422.800781 L 596.589844 427.8125 C 596.558594 427.882812 596.511719 427.929688 596.441406 427.957031 C 596.371094 427.984375 596.304688 427.980469 596.234375 427.953125 L 595.859375 427.792969 C 595.8125 427.769531 595.800781 427.734375 595.816406 427.683594 L 613.890625 386.570312 C 613.941406 386.457031 614.03125 386.402344 614.160156 386.398438 L 614.492188 386.398438 C 614.554688 386.398438 614.605469 386.421875 614.640625 386.476562 C 614.675781 386.53125 614.679688 386.589844 614.652344 386.648438 L 599.941406 420.859375 C 599.914062 420.925781 599.902344 420.992188 599.90625 421.0625 C 599.910156 421.128906 599.933594 421.195312 599.96875 421.253906 C 600.007812 421.3125 600.058594 421.359375 600.121094 421.390625 C 600.183594 421.425781 600.246094 421.441406 600.316406 421.4375 Z M 622.761719 421.386719 " fill-opacity="1" fill-rule="nonzero"/><path fill="#f0f5f4" d="M 783.773438 411.328125 C 784.015625 411.378906 784.144531 411.40625 784.160156 411.414062 C 784.265625 411.441406 784.382812 411.433594 784.511719 411.390625 C 792.933594 408.875 814.800781 401.570312 821.429688 409.152344 C 822.867188 410.796875 823.066406 412.738281 822.03125 414.980469 C 820.1875 418.976562 814.390625 420.089844 810.03125 420.195312 C 801.953125 420.390625 795.152344 418.195312 785.832031 415.699219 C 783.804688 415.152344 782.199219 414.003906 782.808594 411.90625 C 782.867188 411.699219 782.992188 411.539062 783.175781 411.429688 C 783.359375 411.320312 783.558594 411.285156 783.773438 411.328125 Z M 783.773438 411.328125 " fill-opacity="1" fill-rule="nonzero"/><path fill="#f0f5f4" d="M 735.671875 424.042969 C 735.390625 424.464844 734.796875 424.773438 733.882812 424.972656 C 726.109375 426.644531 718.515625 426.324219 711.09375 424.011719 C 708.703125 423.261719 708.011719 421.683594 709.027344 419.285156 C 709.167969 418.949219 709.394531 418.683594 709.699219 418.484375 C 711.792969 417.125 713.820312 416.632812 715.777344 417.003906 C 719.617188 417.726562 723.46875 418.503906 727.324219 419.339844 C 730.304688 419.980469 732.929688 420.960938 735.199219 422.273438 C 735.355469 422.363281 735.484375 422.480469 735.59375 422.621094 C 735.703125 422.761719 735.777344 422.914062 735.824219 423.082031 C 735.867188 423.25 735.878906 423.417969 735.851562 423.582031 C 735.824219 423.75 735.765625 423.902344 735.671875 424.042969 Z M 735.671875 424.042969 " fill-opacity="1" fill-rule="nonzero"/><path fill="#afb3b2" d="M 629.972656 420.796875 C 630.378906 421.125 630.5625 421.664062 630.519531 422.414062 C 627.960938 422.820312 625.285156 422.761719 622.496094 422.230469 C 622.929688 422.046875 623.019531 421.765625 622.761719 421.386719 Z M 629.972656 420.796875 " fill-opacity="1" fill-rule="nonzero"/></svg>